<svg id="Layer_2" data-name="Layer 2" xmlns="http://www.w3.org/2000/svg" viewBox="0 0 623.62 447.29">
    <defs>
        <style>
            .cls-1{fill:currentColor;stroke-width:0}
        </style>
    </defs>
    <g id="Brandmark">
        <path d="M311.81 260.79c-78.36 0-154.36 10.11-226.77 29.06a99.277 99.277 0 0 0 26.97 10.62c63.15-19.49 130.25-30 199.8-30s136.66 10.5 199.8 30c9.6-2.23 18.66-5.85 26.97-10.62-72.41-18.95-148.41-29.06-226.77-29.06Z" style="fill:#3ab98d;stroke-width:0"/>
        <path class="cls-1" d="M24.91 430.72c0 6.6-2.29 9.7-8.58 9.7s-8.53-3.1-8.53-9.7v-20.43H.75v22.23c0 9.16 4.62 14.77 15.58 14.77s15.63-5.61 15.63-14.77v-22.23h-7.05v20.43ZM64.23 436.02l-15.76-25.73h-8.04v36.42h7v-25.73l15.76 25.73h8.09v-36.42h-7.05v25.73zM79.91 410.3h7.05v36.41h-7.05zM108.47 439.88l-8.98-29.59h-7.58l11.44 36.42h10.2l11.54-36.42h-7.59l-9.03 29.59zM136.63 431.35h14.24v-6.55h-14.24v-7.95h15.76v-6.56h-22.81v36.42h22.9v-6.6h-15.85v-8.76zM186.52 421.12c0-7.73-5.31-10.82-12.98-10.82h-14.37v36.41h7.05v-14.28h5.12l8.49 14.28h7.77l-9.07-14.91c5.34-1.48 7.99-5.57 7.99-10.69Zm-12.53 5.11h-7.77v-9.38h7.77c5.68 0 5.43 3.93 5.43 4.53 0 3.19-2.02 4.85-5.43 4.85ZM208.61 425.38c-6.05-1.57-8.4-2.4-8.4-5.61 0-2.98 3.17-3.77 6.15-3.77 3.55 0 7.14.99 9.79 2.74l2.69-5.88c-3.1-2.02-7.81-3.19-12.53-3.19-8.26 0-13.16 4.08-13.2 10.15-.05 6.3 3.63 9.27 9.52 10.91 5.83 1.7 9.79 2.52 9.79 5.88 0 2.65-2.51 4.36-7.32 4.36-3.95 0-7.77-1.08-10.46-2.92l-2.69 5.88c3.23 2.16 8.22 3.37 13.43 3.37 10.6 0 14.19-5.48 14.19-10.87s-3.14-8.89-10.96-11.05ZM226.24 410.3h7.05v36.41h-7.05zM238.63 416.9h11.54v29.81h7.05V416.9h11.59v-6.61h-30.18v6.61zM298.08 410.29l-9.07 16.12-9.07-16.12h-7.95l13.47 22.72v13.7h7.1v-13.7l13.47-22.72h-7.95zM338.38 409.67c-11.36 0-18.57 8.36-18.57 18.74.05 10.33 7.25 18.89 18.57 18.89s18.48-8.56 18.52-18.89c0-10.37-7.21-18.74-18.52-18.74Zm0 30.75c-6.78 0-11.43-5.29-11.47-12.02 0-6.83 4.6-11.86 11.47-11.86s11.43 5.04 11.43 11.86c-.05 6.74-4.69 12.02-11.43 12.02ZM385.22 416.9v-6.61h-23.35v36.42h7.06V431.4h14.72v-6.6h-14.72v-7.9h16.29zM414.99 425.38c-6.05-1.57-8.4-2.4-8.4-5.61 0-2.98 3.17-3.77 6.15-3.77 3.55 0 7.14.99 9.79 2.74l2.69-5.88c-3.1-2.02-7.81-3.19-12.53-3.19-8.26 0-13.16 4.08-13.2 10.15-.05 6.3 3.63 9.27 9.52 10.91 5.83 1.7 9.79 2.52 9.79 5.88 0 2.65-2.51 4.36-7.32 4.36-3.95 0-7.77-1.08-10.46-2.92l-2.69 5.88c3.23 2.16 8.22 3.37 13.43 3.37 10.6 0 14.19-5.48 14.19-10.87s-3.14-8.89-10.96-11.05ZM453.6 424.8h-15.81v-14.51h-7.05v36.42h7.05v-15.27h15.81v15.27h7.05v-36.42h-7.05v14.51zM477.47 410.29l-13.29 36.42h7.32l3.1-8.89h14.37l3.14 8.89h7.27L486 410.29h-8.53Zm-.76 21.2 4.89-13.83.13-.45.13.45 4.94 13.83h-10.1ZM545.81 434.9c0 4-1.8 5.48-4.62 5.48-1.89 0-3.64-.49-5.3-1.3l-2.56 6.06c1.98 1.12 5.39 2.16 9.43 2.16 6.6 0 10.1-3.86 10.1-11.59V410.3h-7.05v24.61ZM568.25 410.29l-13.29 36.42h7.32l3.1-8.89h14.37l3.14 8.89h7.27l-13.38-36.42h-8.53Zm-.76 21.2 5.03-14.28 5.07 14.28h-10.1ZM616.57 410.29v14.51h-15.8v-14.51h-7.05v36.42h7.05v-15.27h15.8v15.27h7.05v-36.42h-7.05zM530.28 421.12c0-7.73-5.31-10.82-12.98-10.82h-14.37v36.41h7.05v-14.28h5.12l8.49 14.28h7.77l-9.07-14.91c5.34-1.48 7.99-5.57 7.99-10.69Zm-12.53 5.11h-7.77v-9.38h7.77c5.68 0 5.43 3.93 5.43 4.53 0 3.19-2.02 4.85-5.43 4.85ZM490.65 355.29c-8.53 0-15.44 6.91-15.44 15.44 0 2.81.83 5.42 2.23 7.63h-30.56l6.82-15.51c-2.42-2.29-7.39-7.56-17.38-7.56-9.42 0-14.38 4.71-17.38 7.56l6.82 15.51h-63.89v-23.07h-17.12c-8.19 0-14.84 6.64-14.84 14.84s6.64 14.84 14.84 14.84h161.34v-14.23c0-8.53-6.91-15.44-15.44-15.44ZM345.2 378.36a8.241 8.241 0 0 1 0-16.48h9.62v16.47h-9.62Zm82.14-13.91c2.52-1.65 5.68-2.56 8.98-2.56s6.46.92 8.98 2.56l-6.12 13.91h-5.73l-6.12-13.91Zm71.7 13.91h-8.71c-4.46 0-8.08-3.62-8.08-8.08s3.76-8.39 8.39-8.39 8.39 3.76 8.39 8.39v8.08ZM597.24 390.08c-2.3 0-4.17 1.87-4.17 4.17s1.87 4.17 4.17 4.17 4.17-1.87 4.17-4.17-1.87-4.17-4.17-4.17Z"/>
        <circle class="cls-1" cx="28.43" cy="345.83" r="4.17"/>
        <path class="cls-1" d="M17.58 350c2.3 0 4.17-1.87 4.17-4.17s-1.87-4.17-4.17-4.17-4.17 1.87-4.17 4.17 1.87 4.17 4.17 4.17Z"/>
        <circle class="cls-1" cx="358.35" cy="345.83" r="4.17"/>
        <path class="cls-1" d="M347.5 350c2.3 0 4.17-1.87 4.17-4.17s-1.87-4.17-4.17-4.17-4.17 1.87-4.17 4.17 1.87 4.17 4.17 4.17Z"/>
        <circle class="cls-1" cx="98.88" cy="345.83" r="4.17"/>
        <path class="cls-1" d="M88.03 350c2.3 0 4.17-1.87 4.17-4.17s-1.87-4.17-4.17-4.17-4.17 1.87-4.17 4.17 1.87 4.17 4.17 4.17ZM286.54 378.36H261.2a4.93 4.93 0 0 1-4.92-4.92v-18.15h-7.05v16.04c0 4.4-3.57 7.98-7.98 7.98s-7.98-3.57-7.98-7.98v-13.02h-7.05v14.04c0 3.47-2.8 7.14-7.29 6.95-3.65-.16-6.61-3.42-6.61-7.24v-13.75h-7.05v15.13a4.93 4.93 0 0 1-4.92 4.92h-63.73v-35.65h-7.05v42.24h70.78c3.37 0 6.41-1.4 8.58-3.65 2.56 2.81 6.24 4.58 10.34 4.58 4.33 0 8.2-1.97 10.76-5.05 2.75 3.09 6.75 5.05 11.21 5.05s8.33-1.89 11.07-4.89c2.19 2.43 5.35 3.96 8.87 3.96h32.38v-42.24h-7.05v35.65ZM302.6 342.72h7.05v42.24h-7.05z"/>
        <circle class="cls-1" cx="229.76" cy="340.37" r="4.17"/>
        <circle class="cls-1" cx="235.38" cy="349.28" r="4.17"/>
        <circle class="cls-1" cx="224.14" cy="349.28" r="4.17"/>
        <path class="cls-1" d="m74.95 376.01.63 2.35H31.96v-23.07H14.84C6.65 355.29 0 361.93 0 370.13s6.64 14.84 14.84 14.84h87.57V355.3H90.88c-10.82 0-18.71 10.27-15.92 20.72Zm-59.66 2.35a8.241 8.241 0 0 1 0-16.48h9.62v16.47h-9.62Zm80.07 0H82.87l-1.23-4.62c-1.59-5.98 2.92-11.86 9.11-11.86h4.61v16.47ZM616.64 371.52c-6.68-9.4-16.78-23.16-37.87-12.15l3.05 5.84c15.06-7.87 21.7-.75 29.44 10.13a62.31 62.31 0 0 0 2.27 3.02h-91.38v-35.65h-7.05v42.24h108.52v-6.6c-1.72 0-4.64-3.54-6.98-6.84ZM113.52 355.29v26.53c0 .71-.14 6.78-9.52 5.56v6.6c14.86 1.67 16.57-9.85 16.57-12.61v-26.09h-7.05ZM453.54 188.02a2.78 2.78 0 0 0-2.78-2.78h-277.9a2.78 2.78 0 0 0-2.78 2.78v3.46h283.46v-3.46ZM292.8 70.72c-14.9 20.49-28.89 60.19-41.38 75.42 3.28 6.24 8.07 14.76 15.03 23.94 9.77-10.31 10.57-11.15 23.14-23.94-8.91-29.72-7.59-55.57 3.4-75.42-.06 0-.15-.05-.19 0ZM226.98 170.08c8.35-9.79 15.17-16.72 23.73-23.94-3-33.02 3.19-59.27 26.14-77.3h-.16c-13.84 9.74-27.07 24.71-59.74 77.3 1.97 6.55 5.76 15.69 10.03 23.94ZM192.64 146.14c0 7.51 1.28 17.35 3.29 23.94 8.9-11.26 12.27-15.04 20.32-23.94 3.83-47.76 43.68-75.77 47.83-78.05h-.12c-18.91 9.92-41.75 30.09-71.32 78.05ZM333.33 146.14c-11.92-23.24-19.85-44.46-21.37-75.42h-.3c-1.52 30.96-9.45 52.18-21.37 75.42 7.76 9 9.61 11.14 21.52 23.94 11.92-12.8 13.76-14.94 21.52-23.94ZM357.18 170.08c6.96-9.18 11.75-17.7 15.03-23.94-12.49-15.23-26.48-54.93-41.38-75.42-.04-.05-.13 0-.19 0 11 19.85 12.32 45.7 3.4 75.42 12.57 12.79 13.37 13.63 23.14 23.94ZM372.91 146.14c8.56 7.22 15.38 14.15 23.73 23.94 4.27-8.25 8.06-17.39 10.03-23.94-32.67-52.59-45.9-67.56-59.74-77.3h-.16c22.94 18.03 29.13 44.28 26.14 77.3ZM407.38 146.14c8.05 8.9 11.42 12.68 20.32 23.94 2.01-6.59 3.29-16.43 3.29-23.94-29.56-47.96-52.4-68.13-71.32-78.05h-.12c4.14 2.28 44 30.29 47.83 78.05Z"/>
        <path class="cls-1" d="M431.69 146.14c3.8 5.26 11.33 15.61 16.19 23.94 0-48.7-45.35-87.91-80.23-102.04h-.06c51.95 23.25 63.82 70.5 64.11 78.1ZM256.04 68.03h-.06c-34.88 14.14-80.23 53.35-80.23 102.04 4.85-8.33 12.38-18.68 16.19-23.94.29-7.6 12.15-54.85 64.11-78.1ZM298.36 245.63v-4.66c0-26.79 5.93-33.94 5.93-33.94h-42.65s5.93 7.15 5.93 33.94v4.66h30.78ZM356.04 245.63v-4.66c0-26.79 5.93-33.94 5.93-33.94h-42.65s5.93 7.15 5.93 33.94v4.66h30.78ZM441.95 245.63v-4.66c0-26.79 3.09-33.94 3.09-33.94h-22.21s3.09 7.15 3.09 33.94v4.66h16.03ZM197.71 245.63v-4.66c0-26.79 3.09-33.94 3.09-33.94h-22.21s3.09 7.15 3.09 33.94v4.66h16.03ZM403.51 245.63v-4.66c0-26.79 4.28-33.94 4.28-33.94h-30.78s4.28 7.15 4.28 33.94v4.66h22.21ZM242.33 245.63v-4.66c0-26.79 4.28-33.94 4.28-33.94h-30.78s4.28 7.15 4.28 33.94v4.66h22.21ZM311.81 48.02c7.3 0 13.4 1.26 19.32 3.26.04.01.09 0 .11-.04.02-.04 0-.09-.02-.11l-17.63-13.29v-.05c1.3-.65 2.2-1.98 2.2-3.53s-.9-2.88-2.2-3.53v-2.6l2.2-1.65L311.87.05s-.03-.05-.05-.05-.05.02-.06.05l-3.91 26.42 2.2 1.65v2.6c-1.3.65-2.2 1.98-2.2 3.53s.9 2.88 2.2 3.53v.05l-17.63 13.29s-.04.07-.02.11.07.06.11.04c5.9-1.99 12.01-3.26 19.32-3.26Z"/>
    </g>
</svg>
