<?xml version="1.0" encoding="UTF-8"?>
<svg id="Layer_2" xmlns="http://www.w3.org/2000/svg" xmlns:xlink="http://www.w3.org/1999/xlink" viewBox="0 0 944.38 285.38">
  <defs>
    <style>
      .cls-1 {
        fill: #5f6369;
      }

      .cls-2 {
        fill: #fff;
      }

      .cls-3 {
        fill: url(#New_Gradient_Swatch_1);
      }
    </style>
    <radialGradient id="New_Gradient_Swatch_1" data-name="New Gradient Swatch 1" cx="533.77" cy="360.44" fx="533.77" fy="360.44" r="546.39" gradientUnits="userSpaceOnUse">
      <stop offset=".29" stop-color="#88bb23"/>
      <stop offset=".44" stop-color="#64b12e"/>
      <stop offset=".69" stop-color="#008d39"/>
      <stop offset=".7" stop-color="#0057a5"/>
      <stop offset=".9" stop-color="#009bde"/>
      <stop offset="1" stop-color="#00a0e3"/>
    </radialGradient>
  </defs>
  <g id="SA_Logo_INSTITUTIONAL">
    <g>
      <rect class="cls-3" x="660.91" width="283.46" height="283.46"/>
      <g>
        <path class="cls-1" d="M557.8,187.84c-26.85,0-48.77,21.92-48.77,48.77s21.92,48.77,48.77,48.77,48.5-21.92,48.5-48.77-21.65-48.77-48.5-48.77ZM557.8,263.19c-14.8,0-26.58-12.05-26.58-26.58s11.78-26.3,26.58-26.3,26.3,11.78,26.3,26.3-11.78,26.58-26.3,26.58Z"/>
        <path class="cls-1" d="M379.21,186.75c-10.69,0-21.65,2.19-30.41,5.75-7.13-4.11-13.98-5.75-23.84-5.75-12.33,0-24.93,1.64-38.63,6.3l-2.47.82v89.6h24.39v-73.43c4.93-1.65,8.77-2.19,13.7-2.19,12.06,0,15.62,3.84,15.62,16.44v59.18h24.66v-60.83c0-5.48-.27-9.04-1.09-12.33,4.93-1.64,8.77-2.47,13.15-2.47,11.51,0,16.71,5.21,16.71,16.44v59.18h24.39v-61.1c0-12.06-1.92-19.18-7.4-25.21-6.03-6.58-16.17-10.41-28.77-10.41Z"/>
        <path class="cls-1" d="M476.94,264.15c-16.25,0-25.56-10.08-25.56-27.7s9.42-28.39,25.81-28.39c3.4,0,6.27.36,9.01,1.18,0,0,5.03,1.43,9.46,4.9l10.33-17.7c-5.62-4.69-12.25-6.71-14.49-7.29-6.32-1.91-15.62-2.19-15.62-2.19-29.31,0-48.99,20.33-48.99,50.55s18.66,47.84,47.59,47.84c0,0,19.38.85,32.39-11.21l-12.14-15.59c-6.58,4.19-11.15,5.59-17.78,5.59Z"/>
        <path class="cls-1" d="M159.05,187.57c-34.8,0-50.96,15.34-50.96,47.95v47.95h24.93v-48.22c0-16.44,9.32-26.58,23.84-26.58,6.03,0,10.69,1.1,13.97,1.92l5.76-21.64c-9.66-1.38-17.54-1.37-17.54-1.37Z"/>
        <path class="cls-1" d="M269.61,232.78v50.69h-33.42c-23.02,0-33.15-1.65-45.21-9.59-10.41-7.13-16.17-20.55-16.17-38.09,0-24.11,15.89-48.5,50.96-48.5,28.5,0,43.84,15.89,43.84,45.48ZM245.23,235.52c0-18.36-7.13-27.4-21.37-27.4s-23.84,10.68-23.84,26.85c0,19.45,9.31,27.95,30.14,27.95h15.07v-27.4Z"/>
        <path class="cls-1" d="M94.53,232.78v50.69h-33.15c-23.02,0-33.15-1.65-45.21-9.59-10.41-7.13-16.17-20.55-16.17-38.09,0-24.11,15.89-48.5,50.96-48.5,28.49,0,43.56,15.89,43.56,45.48ZM69.32,235.52c0-18.63-6.58-27.4-21.1-27.4s-23.84,10.68-23.84,26.85c0,19.45,9.32,27.95,30.14,27.95h14.8v-27.4Z"/>
      </g>
      <g>
        <path class="cls-2" d="M817.29,118.93c3.35,1.69,5.58,5.08,5.16,7.88-.52,2.82-3.54,3.73-7.03,2.07-3.46-1.73-5.69-5.23-5.17-8.04.63-2.73,3.65-3.53,7.03-1.91Z"/>
        <path class="cls-2" d="M827.27,64.38c2.74,1.46,4.65,3.88,4.45,5.64-.31,1.74-2.68,1.99-5.51.55-2.81-1.48-4.75-3.99-4.46-5.74.38-1.69,2.74-1.87,5.52-.45Z"/>
        <path class="cls-2" d="M828.18,58.96c2.29,1.23,3.91,3.23,3.73,4.64-.25,1.4-2.21,1.55-4.56.34-2.35-1.24-3.97-3.29-3.74-4.69.3-1.38,2.27-1.48,4.57-.29Z"/>
        <path class="cls-2" d="M829.06,53.56c2.12,1.15,3.62,2.98,3.47,4.24-.23,1.25-2.04,1.35-4.22.21-2.18-1.17-3.68-3.03-3.48-4.28.27-1.23,2.09-1.28,4.24-.17Z"/>
        <path class="cls-2" d="M829.87,48.32c1.97,1.07,3.37,2.74,3.23,3.86-.19,1.12-1.86,1.17-3.89.12-2-1.08-3.4-2.79-3.23-3.91.24-1.11,1.91-1.11,3.89-.07Z"/>
        <path class="cls-2" d="M830.66,43.47c1.83,1,3.12,2.52,2.99,3.52-.17,1-1.7,1.02-3.56.03-1.86-1-3.16-2.56-3.01-3.56.21-.98,1.74-.96,3.58.02Z"/>
        <path class="cls-2" d="M831.38,39.09c1.69.93,2.88,2.32,2.77,3.22-.15.89-1.56.87-3.28-.05-1.72-.94-2.92-2.36-2.78-3.25.18-.87,1.59-.82,3.29.09Z"/>
        <path class="cls-2" d="M832.05,34.85c1.54.86,2.66,1.98,2.56,2.92-.16.94-1.43.74-3.01-.1-1.57-.88-2.72-2.02-2.58-2.96.19-.91,1.46-.7,3.04.14Z"/>
        <path class="cls-2" d="M832.71,30.55c1.33.76,2.32,1.72,2.24,2.51-.14.79-1.24.58-2.61-.16-1.37-.76-2.35-1.73-2.25-2.54.16-.77,1.26-.56,2.62.19Z"/>
        <path class="cls-2" d="M833.36,26.52c1.23.71,2.12,1.57,2.05,2.28-.12.71-1.12.5-2.36-.19-1.25-.71-2.15-1.58-2.07-2.29.13-.7,1.13-.48,2.38.2Z"/>
        <path class="cls-2" d="M833.97,22.54c1.06.62,1.83,1.34,1.77,1.94-.09.6-.95.39-2.03-.21-1.08-.61-1.87-1.35-1.79-1.94.12-.6.97-.38,2.04.21Z"/>
        <path class="cls-2" d="M834.57,18.81c.94.55,1.62,1.17,1.56,1.69-.08.52-.84.31-1.78-.22-.95-.54-1.64-1.18-1.57-1.7.09-.51.85-.31,1.79.23Z"/>
        <path class="cls-2" d="M813.75,138.02c-2.88-1.44-4.73-4.43-4.28-6.87.54-2.39,3.09-3.14,5.94-1.8,2.79,1.41,4.63,4.31,4.27,6.75-.47,2.45-3.01,3.28-5.92,1.92Z"/>
        <path class="cls-2" d="M811.53,149.65c-2.82-1.4-4.6-4.38-4.14-6.88.55-2.44,3.06-3.27,5.84-1.98,2.75,1.36,4.52,4.27,4.13,6.75-.48,2.5-2.99,3.41-5.83,2.1Z"/>
        <path class="cls-2" d="M809.17,161.77c-2.74-1.34-4.45-4.32-3.97-6.86.55-2.5,3.02-3.4,5.72-2.16,2.68,1.32,4.39,4.23,3.98,6.75-.5,2.54-2.97,3.52-5.74,2.26Z"/>
        <path class="cls-2" d="M806.55,175.07c-2.67-1.27-4.33-4.26-3.81-6.85.58-2.55,2.99-3.53,5.62-2.33,2.61,1.26,4.26,4.16,3.81,6.73-.52,2.59-2.93,3.66-5.62,2.45Z"/>
        <path class="cls-2" d="M803.88,188.39c-2.32-1.1-3.73-3.76-3.27-6.12.53-2.32,2.66-3.28,4.96-2.26,2.26,1.09,3.67,3.68,3.27,6.03-.49,2.36-2.62,3.37-4.96,2.36Z"/>
        <path class="cls-2" d="M800.57,204.5c-2.24-1.04-3.58-3.68-3.1-6.11.56-2.36,2.64-3.41,4.87-2.45,2.18,1.02,3.52,3.61,3.1,6.01-.52,2.41-2.61,3.52-4.87,2.56Z"/>
        <path class="cls-2" d="M796.92,221.93c-2.01-.9-3.16-3.34-2.69-5.63.51-2.25,2.41-3.3,4.4-2.48,1.97.88,3.12,3.26,2.71,5.53-.5,2.28-2.4,3.4-4.42,2.58Z"/>
        <path class="cls-2" d="M793.3,239.35c-1.72-.72-2.66-2.87-2.22-4.95.49-2.06,2.13-3.08,3.82-2.42,1.67.72,2.63,2.81,2.24,4.88-.48,2.06-2.12,3.15-3.84,2.49Z"/>
        <path class="cls-2" d="M829.17,125.5c2.65,1.37,4.46,4.11,4.2,6.37-.35,2.28-2.66,2.99-5.4,1.67-2.72-1.39-4.53-4.2-4.21-6.48.42-2.21,2.73-2.87,5.4-1.56Z"/>
        <path class="cls-2" d="M840.93,130.42c3.25,1.71,5.54,5.19,5.32,8.05-.32,2.9-3.08,3.84-6.45,2.16-3.35-1.75-5.66-5.33-5.36-8.22.42-2.81,3.2-3.63,6.49-1.99Z"/>
        <path class="cls-2" d="M922.36,126.11c-1.33-.84-2.24-.57-2.1.62.18,1.2,1.36,2.83,2.69,3.71,1.36.86,2.26.58,2.1-.65-.19-1.22-1.36-2.83-2.7-3.68Z"/>
        <path class="cls-2" d="M912.89,119.63c-1.79-1.06-3.02-.74-2.87.77.2,1.53,1.73,3.6,3.51,4.72,1.81,1.08,3.02.75,2.85-.81-.22-1.55-1.74-3.58-3.49-4.68Z"/>
        <path class="cls-2" d="M886.42,208.01c-2.29-1.4-4.04-.41-4.1,2.3.02,2.76,1.79,6.04,4.08,7.54,2.31,1.43,4.03.41,4.06-2.38-.05-2.77-1.79-6-4.04-7.46Z"/>
        <path class="cls-2" d="M875.14,185.63c-2.65-1.51-4.74-.49-4.89,2.38-.06,2.92,1.95,6.41,4.64,8.03,2.7,1.54,4.77.46,4.85-2.5,0-2.93-2-6.36-4.6-7.92Z"/>
        <path class="cls-2" d="M863.27,166.28c-2.63-1.41-4.73-.52-4.95,2.11-.11,2.66,1.83,5.87,4.48,7.38,2.68,1.43,4.78.48,4.93-2.22.05-2.65-1.88-5.81-4.46-7.27Z"/>
        <path class="cls-2" d="M855.95,86.92c-2.38-1.24-4.28-.98-4.43.67-.07,1.69,1.7,4,4.11,5.31,2.41,1.26,4.31.94,4.41-.75.04-1.68-1.74-3.95-4.08-5.23Z"/>
        <path class="cls-2" d="M904.44,122.1c-1.85-1.07-3.15-.72-3.05.86.17,1.61,1.71,3.74,3.57,4.88,1.87,1.12,3.17.72,3.04-.9-.18-1.62-1.72-3.71-3.55-4.83Z"/>
        <path class="cls-2" d="M894.87,116.35c-1.96-1.12-3.39-.77-3.34.85.13,1.65,1.74,3.83,3.73,5.01,1.99,1.14,3.41.75,3.31-.91-.15-1.65-1.75-3.81-3.7-4.95Z"/>
        <path class="cls-2" d="M875.79,113.1c-2.3-1.25-4.07-.84-4.11,1,.03,1.88,1.83,4.35,4.15,5.68,2.34,1.27,4.09.8,4.09-1.1-.06-1.88-1.86-4.31-4.13-5.58Z"/>
        <path class="cls-2" d="M885.42,110.53c-2.19-1.21-3.82-.85-3.82.9.08,1.77,1.84,4.14,4.08,5.44,2.23,1.23,3.85.82,3.79-.98-.13-1.78-1.87-4.09-4.06-5.36Z"/>
        <path class="cls-2" d="M875.33,104.71c-2.47-1.33-4.37-.95-4.41.95.02,1.93,1.97,4.53,4.48,5.94,2.53,1.36,4.41.92,4.39-1.03-.08-1.94-2.01-4.47-4.46-5.85Z"/>
        <path class="cls-2" d="M865.6,107.17c-2.56-1.36-4.59-.92-4.72,1.07-.04,2.03,1.93,4.72,4.53,6.16,2.63,1.39,4.64.89,4.71-1.16-.02-2.03-1.98-4.65-4.51-6.07Z"/>
        <path class="cls-2" d="M851.93,147.76c-2.68-1.37-4.92-.58-5.2,1.9-.18,2.54,1.77,5.64,4.49,7.12,2.76,1.41,4.98.55,5.19-2.01.12-2.53-1.82-5.56-4.48-7.01Z"/>
        <path class="cls-2" d="M852.73,137.09c-2.9-1.5-5.3-.73-5.58,1.85-.19,2.63,1.93,5.89,4.89,7.49,2.98,1.53,5.36.67,5.57-1.97.11-2.62-1.99-5.81-4.87-7.37Z"/>
        <path class="cls-2" d="M853.46,127.04c-3.15-1.62-5.72-.87-6.01,1.78-.19,2.72,2.11,6.17,5.31,7.91,3.23,1.66,5.78.82,5.98-1.94.11-2.72-2.18-6.07-5.28-7.75Z"/>
        <path class="cls-2" d="M854.1,117.63c-3.05-1.56-5.54-.95-5.8,1.54-.17,2.54,2.08,5.8,5.19,7.48,3.12,1.61,5.6.88,5.78-1.68.08-2.52-2.15-5.7-5.17-7.34Z"/>
        <path class="cls-2" d="M854.54,109.48c-2.68-1.38-4.84-.9-5.06,1.19-.13,2.14,1.85,4.92,4.56,6.4,2.73,1.42,4.89.85,5.05-1.3.07-2.14-1.9-4.86-4.55-6.29Z"/>
        <path class="cls-2" d="M855.14,101.16c-2.89-1.5-5.23-1.05-5.45,1.12-.14,2.22,2.02,5.18,4.97,6.78,2.96,1.53,5.28,1,5.43-1.26.05-2.21-2.08-5.08-4.95-6.64Z"/>
        <path class="cls-2" d="M855.58,93.62c-2.81-1.47-5.08-1.09-5.29.94-.11,2.08,2,4.88,4.87,6.45,2.88,1.5,5.13,1.05,5.26-1.06.04-2.07-2.05-4.81-4.84-6.33Z"/>
        <path class="cls-2" d="M837.32,70.52c-1.99-1.01-3.64-.86-3.85.38-.16,1.28,1.25,3.09,3.27,4.16,2.01,1.02,3.66.85,3.83-.43.12-1.28-1.28-3.05-3.25-4.12Z"/>
        <path class="cls-2" d="M837.72,64.63c-1.82-.95-3.32-.84-3.51.25-.13,1.13,1.17,2.75,2.99,3.74,1.84.96,3.34.81,3.5-.29.1-1.13-1.19-2.73-2.98-3.7Z"/>
        <path class="cls-2" d="M838.01,59.06c-1.57-.83-2.87-.76-3.03.15-.1.94,1.03,2.33,2.61,3.19,1.59.84,2.87.75,3.01-.19.08-.94-1.05-2.3-2.6-3.15Z"/>
        <path class="cls-2" d="M838.24,53.68c-1.42-.75-2.56-.82-2.72.09-.09.93.94,2.05,2.36,2.83,1.44.75,2.6.82,2.72-.11.08-.93-.96-2.03-2.36-2.81Z"/>
        <path class="cls-2" d="M838.54,48.67c-1.32-.7-2.38-.81-2.51.02-.09.85.88,1.87,2.2,2.6,1.33.7,2.4.81,2.5-.04.07-.84-.89-1.85-2.2-2.58Z"/>
        <path class="cls-2" d="M838.76,43.62c-1.17-.62-2.1-.74-2.22-.03-.07.73.8,1.62,1.95,2.26,1.19.64,2.13.75,2.21.01.05-.73-.8-1.59-1.94-2.24Z"/>
        <path class="cls-2" d="M838.97,39.17c-1.08-.59-1.95-.72-2.05-.08-.06.66.74,1.46,1.82,2.07,1.1.59,1.96.73,2.04.06.05-.66-.74-1.45-1.81-2.05Z"/>
        <path class="cls-2" d="M839.17,34.59c-.95-.53-1.71-.67-1.79-.11-.04.58.65,1.26,1.61,1.81.95.52,1.71.65,1.78.08.04-.57-.66-1.25-1.61-1.78Z"/>
        <path class="cls-2" d="M826.64,143c2.1,1.01,3.9.39,4.19-1.44.21-1.82-1.17-4.01-3.23-5.05-2.07-1-3.87-.42-4.2,1.37-.25,1.82,1.14,4.06,3.24,5.12Z"/>
        <path class="cls-2" d="M824.87,154.67c2.01.96,3.74.3,4.03-1.52.23-1.83-1.09-3.97-3.06-4.98-1.99-.93-3.72-.32-4.05,1.48-.26,1.82,1.06,4,3.07,5.02Z"/>
        <path class="cls-2" d="M822.08,166.65c2,.94,3.71.22,4.02-1.66.25-1.87-1.03-4.04-2.98-5.01-1.95-.93-3.68-.24-4.02,1.6-.27,1.89,1.01,4.1,2.98,5.07Z"/>
        <path class="cls-2" d="M819.53,179.7c1.86.86,3.48.11,3.79-1.73.26-1.83-.95-3.91-2.75-4.81-1.83-.85-3.46-.14-3.8,1.67-.27,1.84.93,3.96,2.76,4.87Z"/>
        <path class="cls-2" d="M816.45,192.73c1.74.8,3.28.02,3.58-1.78.25-1.8-.84-3.79-2.53-4.62-1.72-.78-3.25-.06-3.59,1.73-.27,1.81.82,3.83,2.54,4.67Z"/>
        <path class="cls-2" d="M812.87,208.24c1.63.72,3.08-.09,3.4-1.85.25-1.78-.77-3.7-2.35-4.45-1.61-.72-3.04.05-3.39,1.8-.28,1.79.73,3.74,2.34,4.5Z"/>
        <path class="cls-2" d="M865.4,99.45c-2.38-1.28-4.25-.93-4.36.84-.04,1.81,1.8,4.24,4.21,5.58,2.43,1.28,4.27.88,4.33-.95-.02-1.81-1.83-4.18-4.18-5.47Z"/>
        <path class="cls-2" d="M864.89,115.75c-2.13-1.12-3.83-.72-3.95,1.01-.03,1.75,1.58,4.03,3.74,5.24,2.18,1.16,3.87.69,3.94-1.08,0-1.76-1.62-3.99-3.74-5.17Z"/>
        <path class="cls-2" d="M864.7,124.17c-2.44-1.29-4.38-.75-4.52,1.3-.06,2.09,1.78,4.76,4.25,6.14,2.49,1.31,4.41.72,4.5-1.38,0-2.08-1.83-4.71-4.24-6.06Z"/>
        <path class="cls-2" d="M863.49,154.43c-2.39-1.27-4.31-.54-4.48,1.73-.1,2.31,1.68,5.15,4.1,6.52,2.43,1.29,4.34.51,4.46-1.83.05-2.32-1.71-5.1-4.08-6.43Z"/>
        <path class="cls-2" d="M903.65,113.82c-2.02-1.15-3.42-.83-3.32.82.18,1.66,1.87,3.9,3.89,5.14,2.05,1.17,3.43.81,3.3-.88-.21-1.68-1.89-3.88-3.87-5.08Z"/>
        <path class="cls-2" d="M874.3,200.14c-2.21-1.25-3.96-.33-4.1,2.19-.04,2.55,1.62,5.56,3.85,6.92,2.25,1.29,3.99.31,4.07-2.27.03-2.56-1.64-5.53-3.82-6.85Z"/>
        <path class="cls-2" d="M886.57,223.06c-2.1-1.32-3.73-.33-3.79,2.31,0,2.67,1.63,5.83,3.75,7.24,2.13,1.35,3.72.33,3.75-2.38-.03-2.69-1.63-5.8-3.71-7.18Z"/>
        <path class="cls-2" d="M862.29,178.9c-2.44-1.31-4.42-.4-4.61,2.14-.14,2.59,1.66,5.65,4.13,7.05,2.49,1.32,4.45.35,4.61-2.25.08-2.58-1.71-5.59-4.12-6.95Z"/>
        <path class="cls-2" d="M850.95,160.08c-2.4-1.23-4.39-.44-4.66,1.87-.17,2.37,1.54,5.2,3.98,6.52,2.46,1.26,4.45.4,4.66-1.97.12-2.34-1.59-5.13-3.98-6.42Z"/>
        <path class="cls-2" d="M839.95,141.73c-2.64-1.32-4.87-.57-5.21,1.79-.27,2.39,1.58,5.32,4.24,6.73,2.7,1.32,4.93.51,5.21-1.9.2-2.39-1.63-5.24-4.23-6.61Z"/>
        <path class="cls-2" d="M863.93,144.15c-2.22-1.18-4.02-.56-4.15,1.48-.08,2.07,1.59,4.64,3.84,5.91,2.28,1.22,4.03.54,4.14-1.54.03-2.09-1.62-4.6-3.84-5.85Z"/>
        <path class="cls-2" d="M856.28,80.45c-2.09-1.09-3.76-.89-3.87.49-.07,1.42,1.51,3.42,3.62,4.56,2.12,1.12,3.75.88,3.85-.54.02-1.42-1.54-3.37-3.59-4.51Z"/>
        <path class="cls-2" d="M894.34,108.93c-1.65-.93-2.85-.68-2.78.63.1,1.32,1.46,3.09,3.12,4.08,1.67.95,2.86.65,2.78-.68-.13-1.32-1.48-3.07-3.12-4.03Z"/>
        <path class="cls-2" d="M875.85,131.13c-1.89-1.02-3.32-.59-3.38,1.04.02,1.65,1.46,3.77,3.34,4.86,1.9,1.03,3.33.57,3.34-1.1-.03-1.65-1.47-3.73-3.31-4.8Z"/>
        <path class="cls-2" d="M874.94,173.24c-2.32-1.29-4.14-.49-4.25,1.91-.03,2.45,1.72,5.4,4.07,6.8,2.37,1.32,4.17.47,4.22-2.01-.02-2.44-1.75-5.34-4.04-6.7Z"/>
        <path class="cls-2" d="M864.34,134.33c-2.17-1.16-3.91-.62-4.04,1.28-.06,1.94,1.57,4.38,3.76,5.6,2.21,1.18,3.91.6,4.02-1.36.02-1.94-1.6-4.33-3.74-5.52Z"/>
        <path class="cls-2" d="M886.65,146.89c-2.1-1.19-3.68-.62-3.69,1.36.04,2.01,1.72,4.55,3.83,5.82,2.13,1.23,3.7.63,3.67-1.41-.1-2.02-1.74-4.52-3.81-5.78Z"/>
        <path class="cls-2" d="M895.72,248.76c-1.71-1.2-2.99-.32-3,2.07.03,2.41,1.39,5.28,3.08,6.57,1.72,1.24,2.95.33,2.96-2.11-.06-2.43-1.39-5.27-3.04-6.53Z"/>
        <path class="cls-2" d="M885.76,119c-1.95-1.08-3.41-.7-3.4.91.07,1.64,1.63,3.8,3.58,4.94,1.99,1.11,3.42.69,3.38-.97-.1-1.64-1.65-3.75-3.57-4.88Z"/>
        <path class="cls-2" d="M846.48,75.48c-1.9-.99-3.46-.83-3.61.4-.1,1.26,1.3,3.02,3.21,4.07,1.93,1,3.47.81,3.59-.45.07-1.26-1.32-3-3.2-4.01Z"/>
        <path class="cls-2" d="M865.7,79.5c-1.81-.96-3.21-.81-3.27.39,0,1.22,1.4,2.95,3.22,3.96,1.85.97,3.24.8,3.27-.42-.04-1.23-1.42-2.92-3.23-3.93Z"/>
        <path class="cls-2" d="M885.13,103.79c-1.51-.83-2.62-.61-2.6.55.07,1.15,1.27,2.72,2.78,3.6,1.53.84,2.64.61,2.6-.58-.07-1.17-1.28-2.72-2.78-3.57Z"/>
        <path class="cls-2" d="M875.38,140.78c-1.92-1.05-3.4-.55-3.47,1.2,0,1.77,1.48,4,3.42,5.14,1.95,1.08,3.42.54,3.45-1.26-.02-1.77-1.5-3.97-3.41-5.07Z"/>
        <path class="cls-2" d="M886.05,137.22c-1.67-.94-2.92-.54-2.91.97.05,1.5,1.37,3.45,3.03,4.44,1.68.96,2.92.52,2.89-1.01-.07-1.53-1.38-3.44-3.01-4.41Z"/>
        <path class="cls-2" d="M896.93,153.4c-1.84-1.1-3.21-.58-3.17,1.24.08,1.86,1.6,4.2,3.46,5.39,1.87,1.13,3.22.57,3.15-1.31-.12-1.86-1.62-4.17-3.44-5.32Z"/>
        <path class="cls-2" d="M913.57,128.28c-1.41-.85-2.38-.56-2.26.68.16,1.27,1.35,2.93,2.75,3.84,1.42.86,2.38.56,2.25-.72-.16-1.27-1.36-2.91-2.74-3.8Z"/>
        <path class="cls-2" d="M865.73,73.81c-1.59-.85-2.83-.76-2.86.26,0,1.03,1.24,2.52,2.84,3.42,1.62.86,2.85.74,2.86-.31-.03-1.04-1.26-2.49-2.84-3.37Z"/>
        <path class="cls-2" d="M865.64,85.99c-1.68-.89-2.98-.71-3.03.44,0,1.16,1.29,2.77,2.97,3.72,1.69.9,2.98.7,3.02-.47-.03-1.17-1.3-2.76-2.96-3.69Z"/>
        <path class="cls-2" d="M897.51,233.13c-1.93-1.32-3.39-.39-3.4,2.17.06,2.59,1.6,5.69,3.54,7.12,1.95,1.37,3.38.43,3.36-2.22-.09-2.62-1.61-5.68-3.5-7.07Z"/>
        <path class="cls-2" d="M856.54,74.74c-1.66-.87-2.96-.74-3.05.32-.04,1.08,1.21,2.61,2.87,3.53,1.67.88,2.98.73,3.03-.36.02-1.07-1.21-2.59-2.85-3.5Z"/>
        <path class="cls-2" d="M875.36,122.19c-1.64-.89-2.91-.55-2.94.83.01,1.39,1.29,3.2,2.94,4.13,1.66.9,2.92.54,2.94-.86-.04-1.39-1.31-3.17-2.94-4.09Z"/>
        <path class="cls-2" d="M875.26,98.63c-1.36-.74-2.41-.55-2.43.46.03,1.03,1.1,2.42,2.49,3.18,1.38.76,2.43.56,2.42-.48-.05-1.02-1.12-2.4-2.48-3.16Z"/>
        <path class="cls-2" d="M875.12,162.17c-1.64-.93-2.92-.4-2.99,1.24-.02,1.64,1.25,3.66,2.9,4.64,1.66.94,2.94.39,2.97-1.28,0-1.65-1.26-3.65-2.89-4.6Z"/>
        <path class="cls-2" d="M886.73,194.28c-1.88-1.14-3.34-.4-3.38,1.76.02,2.17,1.49,4.79,3.39,6,1.92,1.16,3.35.39,3.35-1.81-.04-2.18-1.49-4.77-3.36-5.95Z"/>
        <path class="cls-2" d="M865.52,93.48c-1.26-.66-2.23-.51-2.26.39-.01.91.93,2.15,2.19,2.84,1.26.67,2.24.5,2.27-.41-.02-.9-.97-2.13-2.21-2.82Z"/>
        <path class="cls-2" d="M885.76,238.45c-1.49-.96-2.66-.19-2.72,1.8,0,2.02,1.15,4.34,2.65,5.36,1.53.97,2.68.19,2.72-1.84-.02-2.02-1.15-4.33-2.64-5.33Z"/>
        <path class="cls-2" d="M895.45,125.26c-1.57-.89-2.7-.58-2.65.77.1,1.36,1.37,3.14,2.94,4.1,1.59.91,2.71.57,2.65-.81-.12-1.37-1.39-3.13-2.94-4.06Z"/>
        <path class="cls-2" d="M875.14,79.14c-1.43-.77-2.51-.67-2.51.27.04.95,1.17,2.31,2.61,3.12,1.44.78,2.52.65,2.5-.31-.06-.94-1.19-2.29-2.61-3.08Z"/>
        <path class="cls-2" d="M931.66,132.41c-1.14-.74-1.88-.51-1.74.57.19,1.07,1.19,2.5,2.32,3.29,1.15.75,1.88.51,1.72-.59-.18-1.08-1.19-2.5-2.31-3.27Z"/>
        <path class="cls-2" d="M907.41,160.29c-1.64-1.03-2.8-.54-2.74,1.15.12,1.72,1.48,3.9,3.14,5.01,1.66,1.05,2.81.56,2.73-1.19-.14-1.74-1.49-3.9-3.13-4.97Z"/>
        <path class="cls-2" d="M902.35,265.42c-1.38-1.15-2.38-.34-2.37,1.86.07,2.24,1.17,4.91,2.53,6.13,1.38,1.18,2.38.37,2.34-1.89-.08-2.25-1.16-4.91-2.51-6.11Z"/>
        <path class="cls-2" d="M873.81,215.46c-1.66-.95-2.98-.2-3.07,1.79-.04,2,1.18,4.32,2.85,5.33,1.67.97,2.96.19,3.05-1.83.03-2-1.2-4.3-2.83-5.29Z"/>
        <path class="cls-2" d="M896.5,144.12c-1.18-.69-2.05-.39-2.01.72.07,1.12,1.02,2.55,2.2,3.29,1.19.71,2.05.39,2.01-.74-.09-1.13-1.04-2.56-2.21-3.27Z"/>
        <path class="cls-2" d="M874.61,73.31c-1.22-.66-2.12-.68-2.12.18.05.88,1,1.91,2.22,2.61,1.23.66,2.15.68,2.13-.21-.06-.85-1.02-1.89-2.23-2.57Z"/>
        <path class="cls-2" d="M883.29,78.52c-1-.55-1.73-.55-1.71.17.07.73.86,1.6,1.87,2.17,1,.55,1.73.54,1.7-.18-.08-.73-.87-1.6-1.86-2.16Z"/>
        <path class="cls-2" d="M861.66,194.47c-1.48-.79-2.7-.18-2.82,1.45-.07,1.63,1,3.53,2.48,4.38,1.51.8,2.7.16,2.8-1.49.07-1.63-.99-3.51-2.46-4.34Z"/>
        <path class="cls-2" d="M849.47,174.12c-1.46-.74-2.68-.19-2.84,1.28-.12,1.49.92,3.24,2.38,4.04,1.49.74,2.7.19,2.84-1.31.09-1.5-.95-3.23-2.38-4.02Z"/>
        <path class="cls-2" d="M838.2,155.25c-1.45-.72-2.68-.24-2.88,1.09-.13,1.37.86,3,2.32,3.76,1.46.72,2.68.22,2.85-1.13.12-1.37-.86-2.97-2.29-3.72Z"/>
        <path class="cls-2" d="M882.76,73.01c-1.07-.58-1.85-.62-1.81.13.06.75.93,1.66,1.99,2.26,1.07.59,1.85.61,1.81-.15-.08-.75-.93-1.66-1.99-2.25Z"/>
        <path class="cls-2" d="M889.57,73.18c-.92-.5-1.59-.52-1.56.13.06.65.79,1.44,1.72,1.96.92.5,1.61.53,1.56-.13-.06-.64-.79-1.44-1.72-1.96Z"/>
        <path class="cls-2" d="M917.74,168.2c-1.04-.7-1.77-.38-1.69.76.1,1.15.98,2.61,2.02,3.36,1.05.7,1.77.37,1.69-.79-.11-1.16-.98-2.61-2.02-3.33Z"/>
        <path class="cls-2" d="M908.19,170.82c-1.31-.84-2.26-.42-2.21,1.01.11,1.45,1.18,3.27,2.52,4.17,1.32.88,2.25.44,2.19-1.03-.12-1.46-1.18-3.25-2.5-4.15Z"/>
        <path class="cls-2" d="M897.49,164.16c-1.22-.75-2.12-.37-2.1.9.06,1.28,1.05,2.89,2.27,3.67,1.24.77,2.13.36,2.09-.93-.06-1.29-1.05-2.87-2.26-3.65Z"/>
        <path class="cls-2" d="M886.55,157.69c-1.16-.66-2-.32-2,.81,0,1.14.91,2.55,2.04,3.24,1.15.67,2,.31,2-.83-.03-1.15-.93-2.55-2.04-3.23Z"/>
        <path class="cls-2" d="M875.34,151.2c-1.17-.63-2.06-.29-2.1.81,0,1.11.89,2.49,2.05,3.16,1.17.65,2.07.3,2.09-.82,0-1.11-.89-2.47-2.05-3.15Z"/>
        <path class="cls-2" d="M918.31,178.21c-1.06-.73-1.79-.38-1.72.84.1,1.21,1,2.77,2.04,3.52,1.05.74,1.78.38,1.71-.86-.1-1.23-.98-2.75-2.02-3.5Z"/>
        <path class="cls-2" d="M928.89,186.2c-.93-.7-1.56-.38-1.48.77.11,1.16.91,2.62,1.83,3.35.95.72,1.57.38,1.48-.79-.12-1.16-.92-2.61-1.83-3.33Z"/>
        <path class="cls-2" d="M874.98,85.33c-1.16-.63-2.05-.59-2.06.28.04.88.96,1.95,2.14,2.6,1.17.64,2.06.59,2.04-.3-.04-.88-.95-1.92-2.13-2.57Z"/>
        <path class="cls-2" d="M804.9,113.41c-2.75-1.29-5.28-.66-5.86,1.49-.51,2.23,1.25,4.97,4.05,6.35,2.82,1.31,5.34.6,5.86-1.6.42-2.2-1.32-4.88-4.05-6.23Z"/>
        <path class="cls-2" d="M792.96,106.68c-3.49-1.6-6.78-.84-7.63,1.8-.75,2.74,1.4,6.15,4.97,7.87,3.61,1.62,6.88.75,7.63-1.97.64-2.72-1.52-6.02-4.97-7.69Z"/>
        <path class="cls-2" d="M712.95,22.18c1.87.65,2.79,1.81,2.14,2.71-.7.88-2.7,1.08-4.61.47-1.92-.65-2.87-1.8-2.17-2.72.73-.87,2.74-1.07,4.64-.47Z"/>
        <path class="cls-2" d="M726.13,26.28c2.24.86,3.38,2.35,2.65,3.47-.78,1.09-3.13,1.28-5.43.46-2.28-.87-3.45-2.34-2.67-3.48.82-1.07,3.2-1.27,5.45-.46Z"/>
        <path class="cls-2" d="M721.13,130.74c2.11.85,3.13,2.77,2.38,4.5-.81,1.72-3.09,2.45-5.28,1.64-2.16-.85-3.17-2.84-2.37-4.56.87-1.69,3.14-2.37,5.27-1.58Z"/>
        <path class="cls-2" d="M740.04,121.27c2.85,1.19,4.35,3.83,3.46,6.16-.99,2.31-3.98,3.22-6.95,2.06-2.94-1.23-4.41-3.95-3.45-6.28,1.04-2.26,4.05-3.09,6.93-1.95Z"/>
        <path class="cls-2" d="M759.02,115.78c3.01,1.33,4.65,4.15,3.86,6.55-.9,2.4-3.93,3.26-7.03,1.99-3.08-1.36-4.75-4.24-3.86-6.66.97-2.34,4.01-3.13,7.04-1.88Z"/>
        <path class="cls-2" d="M794.49,55.22c2.53,1.26,4.16,3.41,3.73,4.94-.49,1.55-2.86,1.77-5.48.53-2.61-1.31-4.23-3.47-3.75-5.03.55-1.49,2.92-1.68,5.49-.45Z"/>
        <path class="cls-2" d="M734.42,37.03c2.38.93,3.64,2.58,2.94,3.85-.79,1.25-3.23,1.53-5.67.65-2.44-.95-3.71-2.59-2.95-3.88.83-1.22,3.29-1.5,5.68-.62Z"/>
        <path class="cls-2" d="M746.64,41.7c2.43,1.01,3.76,2.78,3.1,4.14-.74,1.32-3.18,1.6-5.69.61-2.49-1.03-3.83-2.81-3.1-4.17.78-1.3,3.26-1.55,5.7-.58Z"/>
        <path class="cls-2" d="M766.95,58.12c2.65,1.22,4.19,3.35,3.58,4.98-.71,1.6-3.31,1.94-6.04.77-2.73-1.23-4.28-3.39-3.59-5.04.75-1.57,3.38-1.87,6.05-.71Z"/>
        <path class="cls-2" d="M758.46,46.3c2.6,1.15,4.08,3.14,3.45,4.65-.73,1.47-3.31,1.76-6.01.64-2.68-1.18-4.18-3.2-3.46-4.71.78-1.44,3.39-1.69,6.02-.58Z"/>
        <path class="cls-2" d="M770.24,51.37c2.74,1.27,4.34,3.47,3.75,5.09-.69,1.61-3.36,1.91-6.22.67-2.82-1.3-4.45-3.52-3.75-5.17.76-1.57,3.45-1.82,6.22-.59Z"/>
        <path class="cls-2" d="M778.62,63.14c2.87,1.36,4.58,3.75,4,5.56-.69,1.81-3.44,2.19-6.4.86-2.94-1.39-4.68-3.82-4-5.65.74-1.75,3.51-2.08,6.41-.77Z"/>
        <path class="cls-2" d="M776.59,111c2.95,1.38,4.68,4.15,4.03,6.5-.77,2.35-3.66,3.14-6.72,1.81-3.03-1.4-4.76-4.27-4.02-6.61.84-2.28,3.73-3.01,6.71-1.7Z"/>
        <path class="cls-2" d="M779.63,101.17c3.19,1.49,5.07,4.44,4.39,6.86-.78,2.42-3.87,3.18-7.15,1.73-3.28-1.52-5.17-4.54-4.4-6.98.86-2.35,3.96-3.03,7.16-1.61Z"/>
        <path class="cls-2" d="M782.36,91.93c3.41,1.64,5.47,4.73,4.79,7.23-.8,2.51-4.1,3.24-7.64,1.66-3.53-1.66-5.6-4.85-4.79-7.37.9-2.43,4.2-3.07,7.65-1.53Z"/>
        <path class="cls-2" d="M785.13,83.32c3.3,1.59,5.32,4.53,4.69,6.87-.75,2.34-3.91,2.95-7.35,1.41-3.42-1.62-5.45-4.65-4.71-7,.85-2.27,4.02-2.8,7.37-1.28Z"/>
        <path class="cls-2" d="M787.5,75.82c2.9,1.4,4.68,3.95,4.14,5.9-.63,1.96-3.38,2.43-6.37,1.05-2.98-1.43-4.77-4.02-4.14-5.99.71-1.9,3.45-2.31,6.37-.96Z"/>
        <path class="cls-2" d="M790.2,68.24c3.12,1.54,5.06,4.22,4.51,6.26-.66,2.03-3.59,2.46-6.81.96-3.21-1.56-5.18-4.31-4.51-6.36.74-1.97,3.68-2.33,6.82-.87Z"/>
        <path class="cls-2" d="M792.53,61.34c3.03,1.5,4.93,4.08,4.42,5.99-.61,1.9-3.44,2.24-6.57.77-3.13-1.52-5.04-4.16-4.44-6.07.69-1.85,3.54-2.12,6.59-.69Z"/>
        <path class="cls-2" d="M816.72,59.77c2.01,1.06,3.38,2.8,3.16,4.04-.3,1.24-2.06,1.4-4.13.36-2.06-1.07-3.42-2.85-3.16-4.09.32-1.22,2.1-1.34,4.13-.32Z"/>
        <path class="cls-2" d="M818.33,54.23c1.83.98,3.1,2.55,2.91,3.65-.26,1.08-1.87,1.19-3.76.23-1.88-.98-3.14-2.59-2.91-3.68.29-1.07,1.9-1.14,3.76-.2Z"/>
        <path class="cls-2" d="M819.92,49.04c1.6.87,2.67,2.2,2.52,3.12-.22.91-1.6.96-3.23.13-1.62-.86-2.72-2.22-2.52-3.14.24-.89,1.62-.92,3.23-.11Z"/>
        <path class="cls-2" d="M821.36,44.06c1.43.78,2.44,1.87,2.29,2.77-.21.9-1.43.82-2.9.06-1.47-.79-2.48-1.9-2.3-2.8.23-.89,1.45-.78,2.91-.03Z"/>
        <path class="cls-2" d="M822.71,39.54c1.34.72,2.28,1.72,2.15,2.54-.19.81-1.32.7-2.68-.02-1.36-.73-2.31-1.73-2.15-2.55.21-.8,1.33-.68,2.68.03Z"/>
        <path class="cls-2" d="M823.97,35.25c1.19.65,2.02,1.51,1.9,2.22-.16.7-1.15.57-2.35-.05-1.19-.67-2.04-1.53-1.89-2.24.18-.68,1.17-.55,2.35.07Z"/>
        <path class="cls-2" d="M825.07,31.62c1.09.6,1.87,1.39,1.76,2.03-.15.64-1.05.49-2.17-.09-1.11-.62-1.88-1.41-1.76-2.05.15-.63,1.07-.49,2.18.11Z"/>
        <path class="cls-2" d="M826.19,27.94c.97.54,1.65,1.22,1.56,1.78-.13.54-.93.4-1.9-.13-.98-.55-1.66-1.22-1.56-1.79.13-.54.92-.38,1.9.14Z"/>
        <path class="cls-2" d="M800.87,130.36c-2.15-1.05-3.48-3.21-3.09-5,.47-1.73,2.44-2.29,4.57-1.31,2.12,1.05,3.46,3.16,3.1,4.94-.43,1.79-2.39,2.37-4.58,1.37Z"/>
        <path class="cls-2" d="M798.55,141.74c-2.07-1-3.33-3.12-2.93-4.9.47-1.74,2.36-2.34,4.41-1.41,2.02.99,3.29,3.07,2.92,4.86-.43,1.76-2.31,2.41-4.4,1.46Z"/>
        <path class="cls-2" d="M796.35,153.82c-2.04-.96-3.27-3.12-2.84-4.96.48-1.82,2.36-2.47,4.4-1.56,2,.96,3.22,3.07,2.85,4.9-.45,1.83-2.34,2.54-4.4,1.63Z"/>
        <path class="cls-2" d="M794.34,166.9c-1.91-.88-3.04-2.97-2.63-4.78.48-1.78,2.26-2.47,4.17-1.63,1.87.88,2.99,2.91,2.61,4.71-.43,1.8-2.22,2.54-4.15,1.69Z"/>
        <path class="cls-2" d="M791.72,181.11c-1.79-.82-2.82-2.81-2.41-4.61.48-1.74,2.16-2.47,3.93-1.7,1.77.82,2.81,2.77,2.43,4.54-.45,1.75-2.14,2.53-3.95,1.77Z"/>
        <path class="cls-2" d="M788.95,197.28c-1.68-.75-2.61-2.67-2.2-4.44.46-1.73,2.08-2.5,3.74-1.78,1.65.74,2.6,2.62,2.2,4.37-.45,1.75-2.07,2.57-3.75,1.86Z"/>
        <path class="cls-2" d="M781.52,56.64c2.64,1.27,4.24,3.45,3.73,5.06-.6,1.6-3.12,1.89-5.84.65-2.72-1.29-4.33-3.51-3.74-5.13.67-1.56,3.2-1.81,5.85-.58Z"/>
        <path class="cls-2" d="M775.55,70.87c2.4,1.12,3.81,3.15,3.3,4.72-.59,1.56-2.9,1.92-5.36.84-2.44-1.14-3.89-3.21-3.32-4.78.65-1.51,2.96-1.85,5.37-.77Z"/>
        <path class="cls-2" d="M772.81,78.38c2.73,1.28,4.34,3.64,3.74,5.51-.7,1.86-3.36,2.33-6.19,1.1-2.82-1.29-4.43-3.7-3.75-5.58.76-1.81,3.43-2.24,6.2-1.04Z"/>
        <path class="cls-2" d="M762.72,105.36c2.7,1.22,4.24,3.7,3.55,5.79-.78,2.07-3.49,2.76-6.29,1.59-2.79-1.24-4.31-3.78-3.57-5.88.84-2.02,3.56-2.66,6.31-1.5Z"/>
        <path class="cls-2" d="M738.38,30.55c2.55,1.06,3.88,2.84,3.12,4.15-.83,1.29-3.46,1.49-6.07.46-2.61-1.06-3.97-2.85-3.13-4.18.89-1.26,3.52-1.46,6.08-.43Z"/>
        <path class="cls-2" d="M735.02,134c2.67,1.13,4.03,3.67,3.16,5.95-.97,2.27-3.8,3.22-6.55,2.15-2.74-1.14-4.08-3.75-3.13-6.06,1.02-2.22,3.83-3.09,6.53-2.05Z"/>
        <path class="cls-2" d="M716.08,141.57c2.7,1.07,3.97,3.62,2.95,5.97-1.11,2.32-4.07,3.36-6.87,2.33-2.76-1.08-4.02-3.71-2.92-6.06,1.15-2.27,4.1-3.23,6.84-2.24Z"/>
        <path class="cls-2" d="M754.68,127.58c2.8,1.23,4.31,3.92,3.53,6.28-.88,2.34-3.72,3.25-6.62,2.07-2.87-1.26-4.38-4.02-3.53-6.38.94-2.3,3.79-3.13,6.61-1.96Z"/>
        <path class="cls-2" d="M772.92,122.36c2.64,1.21,4.18,3.77,3.55,5.97-.72,2.19-3.34,2.99-6.06,1.81-2.72-1.23-4.24-3.87-3.55-6.07.78-2.14,3.39-2.86,6.06-1.71Z"/>
        <path class="cls-2" d="M789.78,117.24c2.78,1.33,4.48,4.05,3.94,6.31-.65,2.28-3.3,3.05-6.18,1.76-2.86-1.36-4.55-4.14-3.93-6.43.69-2.22,3.34-2.92,6.17-1.65Z"/>
        <path class="cls-2" d="M766.15,95.86c2.53,1.15,3.98,3.41,3.37,5.27-.7,1.86-3.2,2.42-5.8,1.33-2.59-1.18-4.03-3.48-3.36-5.34.76-1.82,3.25-2.34,5.8-1.26Z"/>
        <path class="cls-2" d="M796.38,49.31c2.22,1.12,3.65,2.97,3.31,4.28-.43,1.29-2.48,1.44-4.77.34-2.29-1.15-3.72-3.02-3.32-4.34.47-1.25,2.53-1.38,4.78-.28Z"/>
        <path class="cls-2" d="M750.26,36.04c2,.89,3.09,2.37,2.54,3.44-.61,1.05-2.64,1.19-4.7.32-2.05-.9-3.15-2.38-2.55-3.46.65-1.03,2.68-1.16,4.71-.3Z"/>
        <path class="cls-2" d="M760.32,73.64c2.17.98,3.42,2.78,2.86,4.21-.62,1.42-2.77,1.8-5.01.86-2.23-.98-3.48-2.82-2.89-4.26.67-1.39,2.85-1.75,5.05-.82Z"/>
        <path class="cls-2" d="M744.61,110.03c2.75,1.18,4.23,3.68,3.41,5.81-.9,2.13-3.74,2.91-6.6,1.78-2.83-1.2-4.31-3.75-3.41-5.89.96-2.07,3.81-2.81,6.59-1.7Z"/>
        <path class="cls-2" d="M769.35,87.42c2.44,1.13,3.87,3.27,3.3,5.01-.66,1.72-3.05,2.22-5.57,1.13-2.51-1.14-3.93-3.33-3.31-5.08.71-1.68,3.1-2.13,5.58-1.06Z"/>
        <path class="cls-2" d="M743.69,76.28c2.57,1.07,3.95,3.14,3.22,4.84-.83,1.68-3.45,2.18-6.09,1.15-2.62-1.08-4.01-3.19-3.21-4.89.86-1.65,3.5-2.11,6.08-1.1Z"/>
        <path class="cls-2" d="M699.61,149.71c1.91.71,2.73,2.5,1.91,4.18-.89,1.68-3.06,2.47-5.02,1.8-1.94-.71-2.75-2.55-1.89-4.24.93-1.64,3.08-2.38,5-1.73Z"/>
        <path class="cls-2" d="M754.82,53.24c2.33,1.03,3.63,2.83,3.03,4.21-.67,1.36-2.99,1.65-5.39.67-2.38-1.02-3.7-2.84-3.04-4.24.73-1.33,3.06-1.6,5.4-.65Z"/>
        <path class="cls-2" d="M806.73,54.75c1.98,1.03,3.28,2.71,3.02,3.9-.33,1.18-2.12,1.32-4.15.32-2.01-1.04-3.32-2.73-3.01-3.93.36-1.15,2.14-1.27,4.14-.29Z"/>
        <path class="cls-2" d="M777.68,34.99c1.5.59,2.5,1.66,2.32,2.49-.23.8-1.58.98-3.12.41-1.54-.6-2.54-1.68-2.33-2.51.25-.79,1.6-.97,3.13-.39Z"/>
        <path class="cls-2" d="M761.33,40.66c1.77.8,2.78,2.14,2.36,3.13-.49.95-2.24,1.1-4.06.34-1.81-.81-2.83-2.17-2.37-3.15.51-.95,2.26-1.09,4.07-.32Z"/>
        <path class="cls-2" d="M756.51,82.24c2.24.98,3.5,2.88,2.91,4.44-.65,1.52-2.91,1.97-5.22,1.02-2.3-1.01-3.57-2.94-2.93-4.49.69-1.5,2.95-1.92,5.24-.96Z"/>
        <path class="cls-2" d="M747.67,68.71c2.01.85,3.11,2.46,2.55,3.73-.62,1.27-2.64,1.6-4.71.79-2.06-.86-3.17-2.49-2.56-3.76.65-1.24,2.7-1.57,4.72-.76Z"/>
        <path class="cls-2" d="M730.22,71.6c2.38.92,3.6,2.76,2.86,4.26-.82,1.48-3.28,1.95-5.72,1.07-2.42-.93-3.67-2.77-2.87-4.29.86-1.45,3.34-1.91,5.74-1.03Z"/>
        <path class="cls-2" d="M722.04,33.17c1.88.67,2.85,1.91,2.24,2.89-.66.95-2.63,1.19-4.56.56-1.92-.68-2.91-1.91-2.26-2.9.7-.93,2.68-1.18,4.58-.55Z"/>
        <path class="cls-2" d="M780.25,29.8c1.62.66,2.71,1.8,2.51,2.64-.24.85-1.69,1.02-3.36.38-1.66-.66-2.75-1.81-2.53-2.67.27-.83,1.72-.98,3.38-.35Z"/>
        <path class="cls-2" d="M786.03,44.54c2.01.99,3.24,2.6,2.88,3.74-.44,1.13-2.32,1.25-4.38.3-2.04-1.01-3.28-2.64-2.87-3.78.46-1.11,2.34-1.21,4.37-.26Z"/>
        <path class="cls-2" d="M788.38,38.95c1.77.91,2.9,2.34,2.63,3.34-.33.98-1.94,1.05-3.75.17-1.79-.9-2.92-2.36-2.62-3.36.36-.96,1.97-1.02,3.74-.15Z"/>
        <path class="cls-2" d="M763.38,66.4c1.91.86,2.99,2.41,2.54,3.62-.53,1.2-2.39,1.48-4.35.64-1.93-.87-3.04-2.44-2.54-3.66.54-1.18,2.42-1.44,4.34-.61Z"/>
        <path class="cls-2" d="M772.73,46.04c1.58.74,2.5,1.97,2.17,2.86-.39.87-1.91.99-3.5.28-1.59-.75-2.53-1.98-2.16-2.87.42-.86,1.93-.99,3.5-.27Z"/>
        <path class="cls-2" d="M748.71,100.59c1.95.84,2.99,2.56,2.45,4-.62,1.43-2.61,1.91-4.61,1.1-1.98-.85-3.04-2.59-2.44-4.03.64-1.41,2.63-1.87,4.6-1.07Z"/>
        <path class="cls-2" d="M783.38,51.24c1.38.68,2.23,1.8,1.97,2.61-.31.8-1.62.92-3.03.27-1.41-.68-2.26-1.83-1.97-2.63.33-.79,1.64-.89,3.04-.24Z"/>
        <path class="cls-2" d="M797.91,44.06c1.57.82,2.59,2.11,2.39,3.03-.25.9-1.65.96-3.25.18-1.58-.83-2.62-2.15-2.39-3.06.28-.88,1.67-.95,3.26-.15Z"/>
        <path class="cls-2" d="M742.37,48.67c1.96.79,3.01,2.24,2.46,3.35-.62,1.09-2.59,1.34-4.59.58-1.99-.8-3.05-2.25-2.46-3.38.64-1.07,2.62-1.32,4.59-.56Z"/>
        <path class="cls-2" d="M699.87,17.9c1.58.5,2.32,1.42,1.72,2.15-.64.69-2.36.87-3.98.4-1.6-.5-2.37-1.4-1.72-2.14.65-.69,2.4-.88,3.98-.41Z"/>
        <path class="cls-2" d="M716.42,66.83c2.22.8,3.31,2.41,2.58,3.75-.82,1.33-3.17,1.77-5.44,1.02-2.25-.79-3.38-2.41-2.59-3.76.84-1.32,3.21-1.75,5.45-1.01Z"/>
        <path class="cls-2" d="M694.91,162.08c1.77.67,2.47,2.39,1.63,4.03-.88,1.62-2.93,2.41-4.72,1.78-1.79-.67-2.48-2.44-1.63-4.09.9-1.6,2.95-2.34,4.72-1.73Z"/>
        <path class="cls-2" d="M681.01,169.29c1.57.55,2.17,2,1.4,3.43-.81,1.39-2.65,2.1-4.25,1.58-1.6-.55-2.2-2.04-1.4-3.47.83-1.37,2.67-2.05,4.25-1.55Z"/>
        <path class="cls-2" d="M730.11,146.29c2.01.84,3,2.82,2.29,4.63-.78,1.8-2.93,2.58-5,1.78-2.04-.84-3.03-2.87-2.28-4.68.79-1.77,2.95-2.51,4.98-1.72Z"/>
        <path class="cls-2" d="M711.13,154.39c2.01.84,2.99,2.82,2.29,4.64-.78,1.8-2.92,2.57-4.99,1.78-2.06-.84-3.02-2.87-2.28-4.69.79-1.77,2.96-2.5,4.97-1.72Z"/>
        <path class="cls-2" d="M734.48,64.13c1.49.6,2.29,1.73,1.82,2.64-.5.9-2.04,1.17-3.56.6-1.52-.6-2.32-1.75-1.84-2.66.51-.9,2.06-1.14,3.58-.58Z"/>
        <path class="cls-2" d="M773.49,22.07c1.28.53,2.12,1.33,1.91,2.03-.27.68-1.41.7-2.68.19-1.3-.54-2.14-1.36-1.91-2.04.27-.67,1.41-.68,2.68-.18Z"/>
        <path class="cls-2" d="M750.13,140.03c1.71.74,2.61,2.43,2.09,3.95-.58,1.48-2.32,2.09-4.07,1.4-1.74-.76-2.63-2.48-2.09-4,.58-1.48,2.35-2.05,4.07-1.35Z"/>
        <path class="cls-2" d="M768.84,133.69c1.61.74,2.52,2.34,2.11,3.74-.48,1.37-2.07,1.91-3.72,1.21-1.63-.74-2.54-2.37-2.11-3.77.5-1.36,2.09-1.87,3.72-1.18Z"/>
        <path class="cls-2" d="M786.16,129.83c1.53.72,2.44,2.25,2.12,3.55-.38,1.28-1.84,1.75-3.4,1.06-1.55-.72-2.46-2.28-2.11-3.58.39-1.28,1.86-1.72,3.4-1.03Z"/>
        <path class="cls-2" d="M701.51,62.97c1.48.47,2.21,1.47,1.67,2.34-.59.85-2.19,1.16-3.71.72-1.51-.47-2.24-1.47-1.67-2.36.6-.84,2.2-1.15,3.71-.7Z"/>
        <path class="cls-2" d="M711.34,73.79c1.8.63,2.68,1.96,2.05,3.09-.68,1.13-2.6,1.52-4.45.92-1.82-.63-2.71-1.96-2.05-3.1.7-1.11,2.63-1.51,4.46-.91Z"/>
        <path class="cls-2" d="M725.46,80.07c1.57.6,2.38,1.85,1.86,2.9-.56,1.02-2.22,1.36-3.85.78-1.61-.62-2.42-1.86-1.88-2.91.58-1.01,2.24-1.35,3.86-.77Z"/>
        <path class="cls-2" d="M739.35,85.62c1.41.58,2.15,1.74,1.73,2.7-.47.94-1.9,1.24-3.33.7-1.43-.59-2.17-1.75-1.73-2.71.49-.93,1.94-1.22,3.34-.69Z"/>
        <path class="cls-2" d="M752.62,91.24c1.37.6,2.11,1.76,1.74,2.74-.42.97-1.79,1.25-3.18.69-1.38-.6-2.14-1.8-1.76-2.77.44-.94,1.82-1.23,3.21-.66Z"/>
        <path class="cls-2" d="M782.59,25.56c1.24.5,2.09,1.28,1.91,1.97-.21.69-1.27.72-2.52.23-1.25-.51-2.09-1.29-1.93-1.99.21-.67,1.29-.69,2.53-.21Z"/>
        <path class="cls-2" d="M776.04,17.98c1.11.46,1.85,1.18,1.68,1.8-.19.61-1.15.62-2.26.16-1.12-.48-1.87-1.19-1.7-1.82.21-.6,1.17-.6,2.28-.14Z"/>
        <path class="cls-2" d="M769.15,11.38c1,.41,1.69,1.04,1.55,1.6-.16.56-1.03.59-2.03.19-1.01-.4-1.7-1.05-1.57-1.61.18-.55,1.04-.57,2.05-.18Z"/>
        <path class="cls-2" d="M790.14,34.44c1.31.69,2.17,1.65,1.96,2.45-.27.77-1.42.73-2.76.07-1.32-.68-2.19-1.67-1.97-2.46.29-.77,1.45-.72,2.76-.06Z"/>
        <path class="cls-2" d="M696.65,69.56c1.53.47,2.25,1.53,1.69,2.46-.62.89-2.27,1.26-3.82.8-1.56-.48-2.29-1.53-1.7-2.46.63-.89,2.29-1.24,3.83-.8Z"/>
        <path class="cls-2" d="M682.94,65.82c1.46.39,2.11,1.29,1.54,2.13-.62.81-2.21,1.16-3.69.81-1.48-.39-2.13-1.3-1.54-2.13.63-.82,2.22-1.16,3.69-.81Z"/>
        <path class="cls-2" d="M799.31,60.76c-.42,1.57.96,3.69,3.32,5.25-2.78-.93-5.1-.47-5.68,1.32-.42,1.58.64,3.58,2.65,5.29-2.37-.44-4.23.17-4.74,1.82-.53,1.94.99,4.45,3.65,6.28-2.94-.9-5.38-.25-6.04,1.78-.48,1.73.49,3.82,2.41,5.59-2.36-.27-4.2.53-4.75,2.33-.56,2,.65,4.41,2.92,6.32-2.71-.45-4.89.42-5.56,2.51-.75,2.81,1.56,6.38,5.38,8.23,3.11,1.42,5.98,1.12,7.39-.52.38,2.5,2.5,5.16,5.54,6.66,2.63,1.24,5.02,1.17,6.5.07.8,2.21,2.73,4.38,5.3,5.67,2.6,1.25,4.9,1.18,6.31.04.84,2.26,2.79,4.44,5.32,5.74,2.63,1.29,4.93,1.17,6.24-.09.84,2.35,2.83,4.65,5.41,6,3.61,1.8,6.54.89,6.87-2.08.16-2.25-1.25-4.88-3.48-6.86,2.38.42,4.07-.51,4.3-2.63.14-1.95-1.04-4.21-2.95-6.06,2.08.23,3.49-.62,3.67-2.45.15-2.2-1.57-4.92-4.15-6.78,2.67.89,4.65.19,4.86-1.89.11-1.8-1.14-3.96-3.14-5.7,2.11.41,3.57-.26,3.73-1.96.11-1.94-1.6-4.45-4.1-6.18,2.33.82,4.02.35,4.19-1.32.1-1.92-1.92-4.5-4.66-5.98-2.41-1.25-4.41-1.19-5.12.04-.36-1.78-2.16-3.85-4.56-5.13-2.31-1.18-4.3-1.2-5.15-.16-.42-1.89-2.34-4.06-4.94-5.44-2.64-1.34-4.96-1.33-5.91-.11-.37-1.69-2.07-3.64-4.45-4.87-2.89-1.43-5.41-1.34-5.89.46h0c.39-1.82-1.63-4.24-4.53-5.72-2.92-1.43-5.57-1.21-6.14.54ZM836.63,115.34c1.39.74,2.37,2.16,2.27,3.3-.16,1.12-1.35,1.44-2.78.73-1.41-.74-2.39-2.18-2.26-3.3.17-1.12,1.37-1.42,2.77-.72ZM825.51,109.94c1.26.65,2.11,1.89,1.98,2.88-.17.99-1.28,1.27-2.55.65-1.28-.65-2.14-1.92-1.99-2.91.18-.98,1.29-1.23,2.56-.61ZM814.25,104.34c1.29.64,2.13,1.88,1.96,2.85-.22.98-1.36,1.24-2.66.62-1.28-.65-2.13-1.9-1.95-2.87.23-.97,1.37-1.22,2.66-.6ZM804.14,101.32c-.28,1.08-1.62,1.37-3.1.69-1.49-.74-2.43-2.12-2.17-3.22.31-1.05,1.65-1.34,3.11-.65,1.47.72,2.38,2.09,2.16,3.19ZM838.05,107.45c1.21.64,2.08,1.86,1.99,2.82-.13.95-1.16,1.2-2.41.58-1.22-.65-2.09-1.89-1.99-2.84.15-.94,1.18-1.18,2.42-.55ZM803.92,90.37c1.27.65,2.1,1.82,1.89,2.73-.23.92-1.41,1.14-2.7.53-1.29-.66-2.11-1.84-1.9-2.75.26-.91,1.42-1.11,2.71-.51ZM839.02,99.22c1.18.63,2.03,1.79,1.95,2.68-.12.89-1.12,1.1-2.32.49-1.21-.63-2.06-1.82-1.96-2.71.14-.87,1.14-1.08,2.33-.46ZM805.87,82.49c1.24.63,2.04,1.75,1.86,2.61-.22.85-1.35,1.04-2.61.44-1.27-.63-2.06-1.77-1.86-2.64.23-.83,1.36-1.01,2.61-.41ZM839.92,91.52c1.15.62,1.99,1.68,1.91,2.55-.12.89-1.08,1.01-2.26.41-1.18-.62-2-1.69-1.92-2.57.14-.88,1.09-.99,2.26-.39ZM807.69,75.12c1.2.62,1.99,1.64,1.82,2.49-.22.85-1.29.95-2.51.36-1.22-.63-2.03-1.66-1.84-2.52.24-.82,1.32-.92,2.53-.33ZM840.42,83.56c1.25.68,2.14,1.84,2.07,2.72-.1.86-1.15,1.02-2.42.37-1.26-.67-2.17-1.86-2.08-2.73.13-.85,1.18-1,2.44-.36ZM830.48,78.57c1.12.59,1.92,1.58,1.81,2.39-.14.81-1.09.89-2.23.31-1.14-.61-1.93-1.6-1.82-2.41.14-.81,1.09-.88,2.24-.3ZM820.43,73.4c1.15.6,1.91,1.56,1.79,2.37-.17.79-1.16.86-2.31.29-1.16-.6-1.94-1.58-1.8-2.38.19-.79,1.17-.85,2.31-.28ZM809.5,67.69c1.29.66,2.16,1.8,1.98,2.63-.21.83-1.37.97-2.71.32-1.31-.68-2.17-1.82-1.98-2.66.23-.81,1.4-.93,2.71-.29Z"/>
      </g>
    </g>
  </g>
</svg>
