<?xml version="1.0" encoding="UTF-8"?>
<!-- Generator: visioncortex VTracer -->
<svg id="svg" version="1.1" xmlns="http://www.w3.org/2000/svg" style="display: block;" viewBox="0 0 801 265"><path d="M0 0 C6.579375 -0.0825 13.15875 -0.165 19.9375 -0.25 C23.02532837 -0.30462402 23.02532837 -0.30462402 26.17553711 -0.36035156 C27.8344621 -0.37205028 29.49339871 -0.38223929 31.15234375 -0.390625 C31.99156372 -0.41108887 32.83078369 -0.43155273 33.69543457 -0.45263672 C40.82829128 -0.45678433 46.53923625 1.50986782 52.33984375 5.68359375 C58.1590868 12.07195593 59.13830618 19.05283406 58.94140625 27.51953125 C58.01470808 34.05218129 53.94259006 38.82211255 49 43 C46.7421875 43.75 46.7421875 43.75 45 44 C48.13008559 49.66758215 51.61986812 55.01664745 55.25 60.375 C56.34062325 61.98557155 57.42928129 63.59747627 58.515625 65.2109375 C58.99290039 65.91524902 59.47017578 66.61956055 59.96191406 67.34521484 C61 69 61 69 61 70 C44.22319765 71.67429782 44.22319765 71.67429782 39.16796875 67.8671875 C37.14621526 65.00403365 35.55997277 62.13606929 34 59 C32.85454127 57.298033 31.68959221 55.60891788 30.5 53.9375 C28 50.2606383 28 50.2606383 28 48 C24.04 48 20.08 48 16 48 C16 55.26 16 62.52 16 70 C10.72 70 5.44 70 0 70 C0 46.9 0 23.8 0 0 Z M16 14 C16 20.27 16 26.54 16 33 C19.031875 33.061875 22.06375 33.12375 25.1875 33.1875 C26.13391357 33.21481201 27.08032715 33.24212402 28.05541992 33.27026367 C32.84936401 33.3175874 36.15522761 33.20273273 40 30 C42.50031654 26.24952518 42.53603554 24.44143734 42 20 C39.28428452 16.52991911 37.3023547 14.77029278 33 14 C31.63199181 13.92291277 30.26076408 13.89196391 28.890625 13.90234375 C27.8701709 13.90609009 27.8701709 13.90609009 26.82910156 13.90991211 C25.97799805 13.91901611 25.12689453 13.92812012 24.25 13.9375 C21.5275 13.958125 18.805 13.97875 16 14 Z " transform="translate(305,51)" style="fill: #000000;"/><path d="M0 0 C17.82 0 35.64 0 54 0 C54 4.62 54 9.24 54 14 C41.46 14 28.92 14 16 14 C16 18.29 16 22.58 16 27 C26.89 27 37.78 27 49 27 C49 31.95 49 36.9 49 42 C38.11 42 27.22 42 16 42 C16 46.29 16 50.58 16 55 C28.54 55 41.08 55 54 55 C54 59.95 54 64.9 54 70 C36.18 70 18.36 70 0 70 C0 46.9 0 23.8 0 0 Z " transform="translate(375,51)" style="fill: #000000;"/><path d="M0 0 C17.49 0 34.98 0 53 0 C53 4.62 53 9.24 53 14 C40.79 14 28.58 14 16 14 C16 18.29 16 22.58 16 27 C26.56 27 37.12 27 48 27 C48 31.95 48 36.9 48 42 C37.44 42 26.88 42 16 42 C16 46.29 16 50.58 16 55 C28.21 55 40.42 55 53 55 C53 59.95 53 64.9 53 70 C35.51 70 18.02 70 0 70 C0 46.9 0 23.8 0 0 Z " transform="translate(672,51)" style="fill: #000000;"/><path d="M0 0 C4.95 0 9.9 0 15 0 C18.6961708 8.32045498 22.35780198 16.65580133 26 25 C26.55013763 26.26006866 26.55013763 26.26006866 27.11138916 27.54559326 C29.56790458 33.17641967 32.01379857 38.8117316 34.44976807 44.45147705 C35.27497811 46.35895378 36.10273872 48.26532911 36.93304443 50.17059326 C38.11206811 52.87770412 39.28170835 55.58868887 40.44921875 58.30078125 C40.8080867 59.11961288 41.16695465 59.93844452 41.53669739 60.78208923 C41.86191879 61.54276199 42.1871402 62.30343475 42.5222168 63.0871582 C42.80880661 63.74899612 43.09539642 64.41083405 43.39067078 65.09272766 C44 67 44 67 44 71 C38.72 71 33.44 71 28 71 C25.47685875 66.02011595 23.07447818 61.18619546 21 56 C11.76 56 2.52 56 -7 56 C-8.98 60.95 -10.96 65.9 -13 71 C-18.61 71 -24.22 71 -30 71 C-27.68485037 63.66813213 -24.84132222 56.65531258 -21.81640625 49.58984375 C-21.31962875 48.42296524 -20.82285126 47.25608673 -20.3110199 46.05384827 C-19.26462074 43.59822556 -18.21688705 41.14322895 -17.16674805 38.68920898 C-15.83019888 35.5655393 -14.49902532 32.43961386 -13.16957188 29.31291866 C-11.88777703 26.29995334 -10.60196239 23.28870573 -9.31640625 20.27734375 C-8.84336563 19.16568344 -8.37032501 18.05402313 -7.88294983 16.90867615 C-5.42523923 11.17227823 -2.86144738 5.54654147 0 0 Z M7 21 C1.49769483 30.56943358 1.49769483 30.56943358 -1 41 C4.28 41 9.56 41 15 41 C14.33533318 37.67666588 13.82159397 35.24432568 12.58984375 32.23046875 C12.18862305 31.23950195 12.18862305 31.23950195 11.77929688 30.22851562 C11.50150391 29.55498047 11.22371094 28.88144531 10.9375 28.1875 C10.65583984 27.49462891 10.37417969 26.80175781 10.08398438 26.08789062 C9.39325027 24.39032376 8.69716272 22.69493688 8 21 C7.67 21 7.34 21 7 21 Z " transform="translate(465,50)" style="fill: #000000;"/><path d="M0 0 C-6.15034169 8.44646925 -6.15034169 8.44646925 -10 12 C-11.98377512 11.01910897 -13.95231668 10.02605377 -15.89453125 8.96484375 C-21.92410903 5.73515137 -26.86721506 4.15457957 -33.625 6.1875 C-38.30777703 7.98428711 -41.71370191 9.61780979 -44.1875 14.19921875 C-46.93732393 20.43406258 -48.31380973 25.61571359 -46.3046875 32.3203125 C-43.80135878 38.69433436 -40.63884794 41.98905772 -34.625 45.3125 C-27.06378223 47.29281894 -21.67050565 45.65632824 -15 42 C-12.56557532 40.4103041 -12.56557532 40.4103041 -11 39 C-7.78475695 40.40844718 -5.67816132 42.10344786 -3.25 44.625 C-2.63640625 45.25664063 -2.0228125 45.88828125 -1.390625 46.5390625 C-0.70226562 47.26222656 -0.70226562 47.26222656 0 48 C-2.49133923 53.8552795 -7.96185778 57.23949106 -13.625 59.8125 C-24.87564721 63.77106106 -36.12541815 62.64478338 -47 58 C-55.81617158 53.03184352 -60.54259189 45.31195252 -64 36 C-66.4228841 25.33930998 -65.15214872 14.60616743 -59.3125 5.25 C-52.82372444 -3.66210206 -45.32190197 -8.20406178 -34.6875 -10.8125 C-20.6186574 -11.52786488 -10.66277665 -9.20074108 0 0 Z " transform="translate(296,60)" style="fill: #000000;"/><path d="M0 0 C5.94 0 11.88 0 18 0 C23.61 14.85 29.22 29.7 35 45 C39.22129396 34.14524411 43.41717966 23.30234219 47.4375 12.375 C47.88287109 11.1684375 48.32824219 9.961875 48.78710938 8.71875 C49.85946461 5.81301322 50.9299461 2.90658504 52 0 C57.94 0 63.88 0 70 0 C67.51422247 7.80074166 64.53883529 15.37262849 61.4921875 22.96875 C60.96063409 24.29864578 60.42923415 25.62860291 59.89797974 26.95861816 C58.79189922 29.72601638 57.68397596 32.49266739 56.57470703 35.25878906 C55.15099385 38.80946333 53.73199246 42.36199907 52.31432915 45.91509247 C51.2215811 48.65236715 50.12638473 51.38865694 49.03042984 54.12464905 C48.5057591 55.4353242 47.98185868 56.74630798 47.45873642 58.05760193 C46.7313354 59.8798947 46.00028313 61.70072876 45.26904297 63.52148438 C44.85395477 64.55801147 44.43886658 65.59453857 44.01119995 66.66247559 C43 69 43 69 42 70 C39.46950598 70.07313567 36.96695163 70.09247527 34.4375 70.0625 C33.37112305 70.05573242 33.37112305 70.05573242 32.28320312 70.04882812 C30.52209987 70.03700864 28.76103964 70.01907263 27 70 C23.47561385 61.1700423 19.95490097 52.33863176 16.43891144 43.50532722 C14.80630488 39.40402904 13.17242188 35.30324894 11.53564453 31.20361328 C9.95707639 27.24963912 8.38183158 23.29435625 6.80891418 19.33813095 C6.20724976 17.82653261 5.60437507 16.31541543 5.00028992 14.80478287 C4.15652065 12.69418324 3.31701212 10.58193712 2.47851562 8.46923828 C1.99886353 7.26566681 1.51921143 6.06209534 1.02502441 4.822052 C0 2 0 2 0 0 Z " transform="translate(594,51)" style="fill: #000000;"/><path d="M0 0 C6.01297826 4.84378804 7.28795972 9.39233567 8.25 16.8125 C8.47258228 21.52594635 8.44014079 26.220269 8.375 30.9375 C8.33375 35.18625 8.2925 39.435 8.25 43.8125 C-9.24 43.8125 -26.73 43.8125 -44.75 43.8125 C-44.811875 39.006875 -44.87375 34.20125 -44.9375 29.25 C-44.96481201 27.74751709 -44.99212402 26.24503418 -45.02026367 24.69702148 C-45.02775635 23.49634033 -45.03524902 22.29565918 -45.04296875 21.05859375 C-45.0586792 19.83841553 -45.07438965 18.6182373 -45.09057617 17.36108398 C-44.60179117 12.26825964 -43.09118743 8.40516007 -39.75 4.4375 C-36.32855836 1.65757867 -33.06088276 1.53843524 -28.74609375 1.5859375 C-25.87163012 1.91219756 -24.04519424 3.10749856 -21.75 4.8125 C-20.76 5.4725 -19.77 6.1325 -18.75 6.8125 C-18.440625 5.6678125 -18.440625 5.6678125 -18.125 4.5 C-14.68657685 -2.22055433 -6.36771845 -2.7496966 0 0 Z M-11.4375 12.0625 C-14.30324676 15.88349567 -13.8676212 19.95886125 -13.8125 24.5 C-13.80798828 25.20189453 -13.80347656 25.90378906 -13.79882812 26.62695312 C-13.78706927 28.35550538 -13.76913454 30.08401365 -13.75 31.8125 C-10.12 31.8125 -6.49 31.8125 -2.75 31.8125 C-2.66860858 29.41597472 -2.60932991 27.02224564 -2.5625 24.625 C-2.53736328 23.95146484 -2.51222656 23.27792969 -2.48632812 22.58398438 C-2.42092818 18.11498803 -2.99369935 15.35631512 -5.75 11.8125 C-8.3129016 10.5310492 -9.10766843 10.33669884 -11.4375 12.0625 Z M-30.75 13.8125 C-33.20605371 16.36524874 -33.73802939 17.67140643 -34.04296875 21.265625 C-34.00816406 22.51859375 -33.97335937 23.7715625 -33.9375 25.0625 C-33.91042969 26.32578125 -33.88335938 27.5890625 -33.85546875 28.890625 C-33.82066406 29.85484375 -33.78585937 30.8190625 -33.75 31.8125 C-30.45 31.8125 -27.15 31.8125 -23.75 31.8125 C-23.69581674 29.72945462 -23.65712449 27.64600232 -23.625 25.5625 C-23.60179687 24.40234375 -23.57859375 23.2421875 -23.5546875 22.046875 C-23.74053282 18.96927642 -23.97821715 17.3025732 -25.75 14.8125 C-28.30519921 14.00078772 -28.30519921 14.00078772 -30.75 13.8125 Z " transform="translate(792.75,52.1875)" style="fill: #000000;"/><path d="M0 0 C19.47 0 38.94 0 59 0 C59 14 59 14 58 15 C51.07 15 44.14 15 37 15 C37 33.15 37 51.3 37 70 C31.72 70 26.44 70 21 70 C21 51.85 21 33.7 21 15 C14.07 15 7.14 15 0 15 C0 10.05 0 5.1 0 0 Z " transform="translate(503,51)" style="fill: #000000;"/><path d="M0 0 C5.26201478 3.14511228 9.14047957 7.29433815 11.7890625 12.84375 C13.31846807 20.07366726 13.15617276 26.36745213 9.80859375 33.05078125 C6.96086778 37.41840788 3.34900946 40.15752652 -1.2734375 42.46875 C-8.44513299 43.84792221 -15.25938775 44.17192861 -21.73828125 40.43359375 C-25.97972874 37.25018787 -29.58644944 33.05948302 -31.5234375 28.09375 C-32.2570042 21.16751558 -32.6162899 13.91517067 -28.93359375 7.77734375 C-21.76201526 -0.78484553 -10.68527889 -3.83743762 0 0 Z " transform="translate(32.5234375,221.90625)" style="fill: #000000;"/><path d="M0 0 C4.58065601 4.7115319 7.09093053 10.42766549 7.375 17 C7.11521411 22.74917473 5.38443612 27.35364353 1.6875 31.75 C-4.90036477 37.26542167 -9.63513242 39.3929691 -18.15234375 39.26953125 C-24.49320014 38.66936789 -28.54485404 35.77616079 -32.875 31.25 C-37.27453751 25.80582344 -38.25615926 20.96812679 -38 14.0625 C-37.08477395 7.07447995 -33.42230608 2.09933194 -28.1875 -2.4375 C-18.51552103 -7.17866616 -8.56796669 -7.13997224 0 0 Z " transform="translate(89,112)" style="fill: #000000;"/><path d="M0 0 C5.07372317 4.97668474 6.9258659 10.44330787 7.4296875 17.40234375 C6.91232872 24.11722962 4.68555235 29.54843752 -0.46875 34.06640625 C-6.20422867 38.56523896 -10.55286219 39.85266374 -17.84375 39.734375 C-23.71416465 39.01949643 -28.61560826 36.66631154 -32.49609375 32.171875 C-37.18484255 25.31220193 -38.3631406 19.67040818 -37.5703125 11.40234375 C-35.79893433 5.14916541 -31.83927943 1.03053589 -26.5703125 -2.59765625 C-18.07211273 -7.2095825 -7.51038679 -6.19876422 0 0 Z " transform="translate(151.5703125,111.59765625)" style="fill: #EC057C;"/><path d="M0 0 C4.97725721 2.97793613 8.40745897 7.07491608 10.9375 12.25 C12.45983985 20.01393322 12.12779499 26.13370396 8.26171875 33.16796875 C4.78934807 37.80577878 0.00035246 40.62488251 -5.4375 42.4375 C-12.57386835 43.14076086 -18.5731238 42.8261579 -24.4375 38.4375 C-30.26941096 32.95628302 -32.90104032 27.48439521 -33.4375 19.4375 C-32.83440165 13.13847281 -30.97730743 7.93269016 -26.4375 3.4375 C-19.00250879 -2.69365142 -8.87421051 -3.91009275 0 0 Z " transform="translate(33.4375,52.5625)" style="fill: #000000;"/><path d="M0 0 C6.00122252 3.5484407 9.48189394 8.80466506 11.5625 15.375 C12.74135192 23.05696913 10.89559405 28.98879071 6.5625 35.375 C2.78548744 39.5969486 -1.63672243 42.04276983 -7.26953125 42.7109375 C-15.2348933 42.81533281 -20.28936702 41.86600301 -26.41015625 36.71484375 C-31.49613179 31.62886821 -33.2185233 26.51781146 -33.4375 19.375 C-32.83431621 12.50343562 -29.6139296 7.13419757 -24.5 2.625 C-17.39617812 -2.59413444 -8.1605307 -3.72343606 0 0 Z " transform="translate(33.4375,166.625)" style="fill: #EC057B;"/><path d="M0 0 C0 3.96 0 7.92 0 12 C-7.625 15.875 -7.625 15.875 -11 17 C-11 23.93 -11 30.86 -11 38 C-9.370625 38.639375 -7.74125 39.27875 -6.0625 39.9375 C-1.125 41.875 -1.125 41.875 0 43 C0.07244053 45.01964199 0.08377188 47.04167124 0.0625 49.0625 C0.05347656 50.16722656 0.04445313 51.27195313 0.03515625 52.41015625 C0.02355469 53.26480469 0.01195312 54.11945313 0 55 C-4.81700959 54.30103563 -9.00451562 52.46811489 -13.44921875 50.578125 C-14.26187698 50.2362616 -15.07453522 49.89439819 -15.91181946 49.54217529 C-17.62991142 48.81813762 -19.34703 48.09178641 -21.06323242 47.36328125 C-23.65878885 46.26218 -26.25779946 45.16958647 -28.85742188 44.078125 C-37.04151338 40.62790219 -45.12446601 37.12025877 -53 33 C-53 29.04 -53 25.08 -53 21 C-46.09885815 18.00003215 -39.19371465 15.00954978 -32.28466797 12.02783203 C-29.9342553 11.01188491 -27.58496272 9.99334237 -25.23681641 8.97216797 C-21.8639075 7.5058717 -18.48709725 6.04891779 -15.109375 4.59375 C-14.05820496 4.13440063 -13.00703491 3.67505127 -11.92401123 3.20178223 C-10.45293915 2.57112854 -10.45293915 2.57112854 -8.95214844 1.92773438 C-8.09055115 1.55467163 -7.22895386 1.18160889 -6.34124756 0.79724121 C-4 0 -4 0 0 0 Z M-31.625 24.5 C-33.40777344 25.19609375 -33.40777344 25.19609375 -35.2265625 25.90625 C-36.14179687 26.2671875 -37.05703125 26.628125 -38 27 C-35.49876879 28.66748747 -33.22323643 29.89954361 -30.5 31.125 C-29.33984375 31.65480469 -29.33984375 31.65480469 -28.15625 32.1953125 C-25.91514156 33.1748175 -25.91514156 33.1748175 -23 33 C-23 29.37 -23 25.74 -23 22 C-26.14029447 22 -28.71830469 23.36011949 -31.625 24.5 Z " transform="translate(801,102)" style="fill: #000000;"/><path d="M0 0 C5.28 0 10.56 0 16 0 C16 23.1 16 46.2 16 70 C10.72 70 5.44 70 0 70 C0 46.9 0 23.8 0 0 Z " transform="translate(570,51)" style="fill: #000000;"/><path d="M0 0 C3.96 0 7.92 0 12 0 C12 12.54 12 25.08 12 38 C-5.49 38 -22.98 38 -41 38 C-41 34.04 -41 30.08 -41 26 C-27.47 26 -13.94 26 0 26 C0 17.42 0 8.84 0 0 Z " transform="translate(789,161)" style="fill: #000000;"/><path d="M0 0 C4.49625 -0.061875 8.9925 -0.12375 13.625 -0.1875 C15.03217285 -0.21481201 16.4393457 -0.24212402 17.88916016 -0.27026367 C19.01112793 -0.27775635 20.1330957 -0.28524902 21.2890625 -0.29296875 C23.00150146 -0.31653442 23.00150146 -0.31653442 24.74853516 -0.34057617 C29.70953267 0.17906578 32.94123427 1.85538839 36.3125 5.5 C39.14112473 9.69055516 39.41496987 13.02036155 39 18 C37.57912259 21.768414 35.68282702 24.48371615 32.4375 26.9375 C30 28 30 28 27 28 C27.39380859 28.5347998 27.78761719 29.06959961 28.19335938 29.62060547 C29.9671546 32.0351711 31.73364666 34.45498576 33.5 36.875 C34.43005859 38.13763672 34.43005859 38.13763672 35.37890625 39.42578125 C36.25869141 40.63427734 36.25869141 40.63427734 37.15625 41.8671875 C37.70087891 42.61081543 38.24550781 43.35444336 38.80664062 44.12060547 C40 46 40 46 40 48 C36.79296875 48.3203125 36.79296875 48.3203125 33 48 C30.48828125 45.8046875 30.48828125 45.8046875 28.3125 42.875 C27.54035156 41.8746875 26.76820313 40.874375 25.97265625 39.84375 C24.46813892 37.67486165 23.35574654 35.73701355 22.25 33.375 C19.28511068 30.2453946 17.48427854 30.47177281 13.25 30.125 C10.15625 30.063125 10.15625 30.063125 7 30 C7 35.94 7 41.88 7 48 C4.69 48 2.38 48 0 48 C0 32.16 0 16.32 0 0 Z M7 6 C7 11.94 7 17.88 7 24 C9.495625 24.061875 11.99125 24.12375 14.5625 24.1875 C15.33408447 24.21481201 16.10566895 24.24212402 16.90063477 24.27026367 C22.00102098 24.33071173 25.49566986 23.43676876 30 21 C32.47342266 17.28986601 32.38503486 15.38939738 32 11 C30.23984869 7.8149643 29.50109084 7.16703028 26 6 C24.51876453 5.9193378 23.03417796 5.89238807 21.55078125 5.90234375 C20.70322266 5.90556641 19.85566406 5.90878906 18.98242188 5.91210938 C18.10134766 5.92048828 17.22027344 5.92886719 16.3125 5.9375 C14.97348633 5.94426758 14.97348633 5.94426758 13.60742188 5.95117188 C11.40491927 5.96294996 9.20245115 5.98088519 7 6 Z " transform="translate(419,151)" style="fill: #ED087E;"/><path d="M0 0 C6 0 6 0 8.421875 2.16796875 C9.19015625 3.16441406 9.9584375 4.16085938 10.75 5.1875 C11.3828894 5.99247925 11.3828894 5.99247925 12.02856445 6.8137207 C13.37053135 8.5292427 14.68546516 10.2634023 16 12 C16.87215506 13.12619652 17.74583642 14.25121281 18.62109375 15.375 C20.25191402 17.47521554 21.86962845 19.58344725 23.48046875 21.69921875 C26.62629778 25.82049865 29.81689771 29.90743991 33 34 C33.33 22.78 33.66 11.56 34 0 C36.31 0 38.62 0 41 0 C41 15.84 41 31.68 41 48 C35 48 35 48 33.28417969 46.73754883 C32.60983887 45.85619263 32.60983887 45.85619263 31.921875 44.95703125 C31.40560547 44.30138184 30.88933594 43.64573242 30.35742188 42.97021484 C29.82697266 42.25816895 29.29652344 41.54612305 28.75 40.8125 C28.18861328 40.0901416 27.62722656 39.3677832 27.04882812 38.62353516 C25.34838529 36.428497 23.67324944 34.21580308 22 32 C21.03825365 30.74991881 20.07483233 29.50112362 19.109375 28.25390625 C17.46825947 26.13268983 15.83953231 24.00417787 14.21875 21.8671875 C11.88620756 18.85295132 9.43996556 15.92795868 7 13 C6.67 24.55 6.34 36.1 6 48 C4.02 48 2.04 48 0 48 C0 32.16 0 16.32 0 0 Z " transform="translate(685,151)" style="fill: #ED077D;"/><path d="M0 0 C5.878125 -0.1546875 5.878125 -0.1546875 11.875 -0.3125 C13.69620361 -0.38078003 13.69620361 -0.38078003 15.55419922 -0.45043945 C23.91056011 -0.55582887 30.64334217 1.01481035 36.93847656 6.77319336 C42.40048982 12.59472938 43.41300986 18.44331632 43.25390625 26.25 C42.6862817 32.39781048 40.45172781 37.66542292 36 42 C23.67949211 50.02424223 17.06975783 48 0 48 C0 32.16 0 16.32 0 0 Z M7 6 C7 17.88 7 29.76 7 42 C22.13225276 42.55624209 22.13225276 42.55624209 32.875 35.3125 C35.90921393 30.58269593 37.56118902 26.25595513 36.5859375 20.59765625 C35.20991068 16.05374351 33.4475132 12.34901282 30 9 C22.58382361 4.73289481 22.58382361 4.73289481 7 6 Z " transform="translate(238,151)" style="fill: #EE0A7F;"/><path d="M0 0 C5.81067945 3.33523552 8.99001485 7.85502969 11.9375 13.75 C13.54676966 22.11820224 13.4059965 29.3037512 9.10546875 36.80859375 C4.6208579 43.1778765 -0.84067112 46.42280369 -8.4375 48 C-15.72984296 48.99065791 -21.32649396 46.6470032 -27.625 43.3125 C-32.14066214 39.59962224 -35.38278759 34.81689876 -36.4375 29 C-37.26002643 20.32822138 -36.79533876 13.12231931 -31.4375 6 C-22.80741664 -2.36909294 -11.23505221 -5.05577349 0 0 Z M-26.4375 10 C-29.90955594 15.39996069 -31.11116526 20.65056994 -29.9765625 26.96875 C-28.35021243 33.09702563 -25.55251739 36.31718748 -20.4375 40 C-16.38042537 42.18457865 -13.01284509 42.46528933 -8.4375 42 C-2.69355857 40.07441201 1.29729683 37.18591092 4.5625 32 C6.86901654 25.88455707 6.98029854 20.50454628 4.8203125 14.3359375 C2.15449072 9.38512562 -2.12837776 5.76970741 -7.4375 4 C-15.17046029 2.89728545 -20.89606424 4.33467035 -26.4375 10 Z " transform="translate(662.4375,152)" style="fill: #ED097E;"/><path d="M0 0 C3.99059281 3.32549401 6.30656041 6.15449337 6.86328125 11.45703125 C7.0329021 17.26877736 6.62469908 20.64730104 2.625 25.1875 C-2.40335033 29.6172372 -5.25665291 30.48766588 -11.8359375 30.40234375 C-16.57675154 30.00119795 -19.364609 28.22595742 -22.625 24.875 C-25.91836305 19.81733531 -26.95407138 15.44694862 -26.109375 9.50390625 C-24.3931747 4.09057234 -20.39353094 0.28452768 -15.5 -2.375 C-9.74440833 -3.18078283 -5.15523544 -2.76855236 0 0 Z " transform="translate(197.375,114.8125)" style="fill: #000000;"/><path d="M0 0 C4.00455791 3.45848183 6.31314463 6.60230572 7.1328125 11.8046875 C7.40795199 17.83941373 6.47199833 21.60320727 2.75 26.375 C-2.07749152 30.14044339 -5.79439529 30.97265651 -11.88671875 30.6953125 C-16.54341856 30.06415649 -19.30814229 28.36918314 -22.5 25 C-25.94139038 19.83791444 -26.76283096 16.10686955 -25.98046875 9.94921875 C-24.67472027 5.34767732 -21.93633748 2.32554158 -18.25 -0.625 C-11.862943 -3.52820773 -6.16049223 -3.08024612 0 0 Z " transform="translate(197.25,58.625)" style="fill: #000000;"/><path d="M0 0 C3.462562 4.64712268 4.6214787 8.06690472 4.31640625 13.86328125 C3.37313578 20.23326827 -0.1032428 23.35347868 -5 27 C-8.69734414 28.84867207 -12.9563184 28.33645425 -17 28 C-22.27726735 26.20772052 -24.83988933 23.42415494 -28 19 C-29.88432768 14.50660322 -29.50766049 9.46325671 -27.9375 4.9375 C-25.03386928 0.53522117 -21.54711943 -3.02033868 -16.5625 -4.9375 C-9.81376788 -5.10210322 -5.2218504 -4.50977989 0 0 Z " transform="translate(86,61)" style="fill: #000000;"/><path d="M0 0 C4.41483234 4.00415026 6.40013176 8.09750148 7.125 14 C6.42521056 19.49834557 4.91470693 23.65312684 0.6875 27.3125 C-4.41541896 30.9270676 -9.229873 31.12072799 -15.3125 30.4375 C-20.62815158 27.77967421 -24.41486008 24.13041975 -26.3125 18.4375 C-27.15337671 12.34715009 -26.2886941 8.13690151 -22.7421875 3.09765625 C-16.75777324 -3.85145867 -7.75769458 -3.6592899 0 0 Z " transform="translate(140.3125,58.5625)" style="fill: #000000;"/><path d="M0 0 C4.28924359 4.67917483 5.59463695 8.84776572 5.34375 15.078125 C4.71662141 19.92095135 2.61177926 22.9629046 -1 26.0625 C-6.19147054 29.9284887 -10.57519588 29.89792913 -16.9375 29.25 C-21.76583008 26.87972887 -25.64909336 23.4710166 -27.6875 18.375 C-28.38340331 12.45982185 -28.27935316 8.3166806 -24.9375 3.25 C-17.62812349 -4.4744769 -9.33623208 -5.5620106 0 0 Z " transform="translate(84.9375,229.75)" style="fill: #000000;"/><path d="M0 0 C3.7668148 1.87528926 6.3477872 4.51871316 8.21484375 8.28515625 C9.93456285 13.63765474 9.8228342 19.17727763 7.25 24.21484375 C3.88663999 28.64031745 0.91154057 30.76346434 -4.4375 32.27734375 C-9.72036375 32.36688381 -14.56530995 31.44709464 -18.73828125 28.01171875 C-22.03947795 24.31126227 -24.07597771 20.39148112 -24.15625 15.39453125 C-23.67905984 9.11948069 -21.18109844 5.24549596 -16.5625 0.96484375 C-11.19547729 -1.57229426 -5.69869882 -1.77036783 0 0 Z " transform="translate(194.125,0.66015625)" style="fill: #EC067C;"/><path d="M0 0 C4.22404996 2.08447683 6.40379933 4.98131532 8.1953125 9.1796875 C9.61480191 13.89740231 9.85747616 18.03872669 7.90625 22.62890625 C4.76835488 28.05071238 1.72286789 30.61577836 -4.390625 32.26171875 C-9.95628137 32.44724063 -14.74900426 31.5037275 -19.01171875 27.73046875 C-22.31683396 23.98942707 -23.99695066 21.25448516 -24.390625 16.13671875 C-24.07065271 11.33713434 -23.10733883 7.42161199 -19.67578125 3.87109375 C-13.75710089 -1.16484944 -7.56116131 -2.16624512 0 0 Z " transform="translate(81.140625,0.61328125)" style="fill: #000000;"/><path d="M0 0 C3.74696715 1.9060659 6.33743247 4.52847702 8.1953125 8.30078125 C9.77063263 13.16574048 9.8359978 17.89130422 7.94140625 22.6640625 C5.39529554 27.14653573 2.92641171 29.85021829 -2.140625 31.3515625 C-7.47781117 31.98087251 -11.70043019 32.05856723 -16.578125 29.6640625 C-21.7818906 24.96798135 -23.8161334 21.88457114 -24.234375 14.84765625 C-24.06783101 10.41342239 -22.79045249 7.04088055 -19.671875 3.84765625 C-13.81725819 -1.18903615 -7.49843708 -2.27142437 0 0 Z " transform="translate(81.140625,171.6484375)" style="fill: #000000;"/><path d="M0 0 C4.45146251 2.18526342 7.18885145 4.9394521 10 9 C11.78816966 14.36450899 11.68834152 19.10384524 9.4375 24.25 C6.56356464 29.41902155 2.6803197 31.12598271 -2.875 32.9375 C-8.72917291 33.05458346 -13.40485366 31.28969279 -17.9375 27.625 C-21.42749771 23.18318473 -22.42885287 19.70366055 -22.24609375 13.984375 C-21.65964703 9.25556651 -19.4558079 6.19827693 -15.9375 3.1875 C-10.74602946 -0.6784887 -6.36230412 -0.64792913 0 0 Z " transform="translate(249,0)" style="fill: #000000;"/><path d="M0 0 C4.81414749 4.34447456 7.38023679 7.53298604 7.8125 14.125 C7.72604161 18.84562813 6.53974779 22.36161551 3.09765625 25.7578125 C-1.98734419 30.10927987 -5.06272804 30.67628926 -11.609375 30.58203125 C-16.03661301 30.16009835 -17.96246251 29.1492653 -21.4375 26.3125 C-24.59446568 22.0656295 -26.13989188 17.6291154 -25.81640625 12.328125 C-24.78974829 6.86672803 -22.67034551 3.3189045 -18.375 -0.1875 C-12.46724729 -3.03951855 -5.79790016 -2.8462419 0 0 Z " transform="translate(139.4375,172.6875)" style="fill: #000000;"/><path d="M0 0 C4.45146251 2.18526342 7.18885145 4.9394521 10 9 C11.78816966 14.36450899 11.68834152 19.10384524 9.4375 24.25 C7.17403699 28.24249725 4.43458177 30.69571124 0 32 C-5.3465468 32.74602979 -9.55087096 32.71139062 -14.4375 30.3125 C-19.25164749 25.96802544 -21.81773679 22.77951396 -22.25 16.1875 C-22.16354161 11.46687187 -20.97724779 7.95088449 -17.53515625 4.5546875 C-11.78669653 -0.36453231 -7.41414687 -0.75504749 0 0 Z " transform="translate(192,171)" style="fill: #000000;"/><path d="M0 0 C11.55 0 23.1 0 35 0 C35 1.65 35 3.3 35 5 C25.43 5 15.86 5 6 5 C6 10.28 6 15.56 6 21 C14.58 21 23.16 21 32 21 C32 26 32 26 31 27 C29.14630389 27.08737645 27.28932459 27.10698153 25.43359375 27.09765625 C24.30888672 27.09443359 23.18417969 27.09121094 22.02539062 27.08789062 C20.84138672 27.07951172 19.65738281 27.07113281 18.4375 27.0625 C17.24962891 27.05798828 16.06175781 27.05347656 14.83789062 27.04882812 C11.89190588 27.03699686 8.94594684 27.01906076 6 27 C6 31.95 6 36.9 6 42 C15.57 42 25.14 42 35 42 C35 43.98 35 45.96 35 48 C23.45 48 11.9 48 0 48 C0 32.16 0 16.32 0 0 Z " transform="translate(291,151)" style="fill: #ED067C;"/><path d="M0 0 C0.99 0.66 1.98 1.32 3 2 C1.25 6.875 1.25 6.875 -1 8 C-2.59375 7.22265625 -2.59375 7.22265625 -4.5 6.0625 C-9.2894453 3.55415912 -13.67798445 3.08014546 -19 4 C-21.8213337 5.40087749 -21.8213337 5.40087749 -23 8 C-23.32908167 11.10927047 -23.32908167 11.10927047 -22 14 C-16.98204773 16.94003371 -11.67955251 18.36620424 -6.12109375 19.9375 C-1.51301857 21.50620644 1.27795919 22.91693879 4 27 C4.64463597 31.32245383 4.91647813 35.87291821 3.16015625 39.94921875 C0.04355151 44.11518536 -4.09766696 45.86869238 -9 47 C-17.43316599 47.93701844 -25.35381436 45.07208904 -32 40 C-31.75 38.125 -31.75 38.125 -31 36 C-28.9375 34.75 -28.9375 34.75 -27 34 C-26.29875 34.61875 -25.5975 35.2375 -24.875 35.875 C-19.83835792 39.59773545 -15.21971033 40.56542821 -9 40 C-6.07097697 39.04331967 -6.07097697 39.04331967 -4 37 C-2.84188612 34.05270463 -2.84188612 34.05270463 -3 31 C-5.02863086 28.39925233 -6.92874941 27.47209396 -10.0546875 26.5703125 C-10.83457031 26.33183594 -11.61445313 26.09335938 -12.41796875 25.84765625 C-14.04669216 25.36861995 -15.67689956 24.89459868 -17.30859375 24.42578125 C-22.40337733 22.8562186 -25.51581147 21.24934366 -29 17 C-30.73969869 13.52060261 -30.44829907 9.80413782 -30 6 C-28.16208279 2.03009882 -26.66097143 0.40467638 -22.9375 -1.875 C-15.13759312 -4.6869836 -7.32105886 -3.39906304 0 0 Z " transform="translate(364,153)" style="fill: #ED0A7F;"/><path d="M0 0 C2.31 0 4.62 0 7 0 C7.02187378 1.45237061 7.02187378 1.45237061 7.04418945 2.93408203 C7.10241567 6.54626324 7.17964536 10.15783683 7.26245117 13.76953125 C7.29558667 15.32900081 7.3236537 16.88858702 7.34643555 18.44824219 C7.38019281 20.69776852 7.43251504 22.94623687 7.48828125 25.1953125 C7.49467117 25.8861795 7.5010611 26.57704651 7.50764465 27.28884888 C7.64542566 31.88451678 8.54346653 35.11093938 11 39 C15.72194445 41.92760556 19.43445437 42.51635747 24.91796875 41.62890625 C28.41437492 40.57276855 29.9249431 38.95538407 32 36 C34.45276812 28.62411306 34.43674928 21.21827935 34.625 13.5 C34.66367187 12.200625 34.70234375 10.90125 34.7421875 9.5625 C34.83593347 6.37513714 34.92164349 3.1877721 35 0 C36.98 0 38.96 0 41 0 C41.07482575 4.3924631 41.12891683 8.78457672 41.16479492 13.17749023 C41.17977042 14.66811598 41.20015819 16.15869851 41.22631836 17.64916992 C41.55549123 36.90255577 41.55549123 36.90255577 36.38549805 42.8605957 C31.76289534 47.31758792 26.97254475 48.72476438 20.625 49.3125 C13.24373335 48.67618391 8.06596615 46.91484925 3.19140625 41.20703125 C-1.16810098 33.13122277 -0.23186126 23.8856146 -0.125 15 C-0.11495155 13.54297489 -0.10582899 12.08594309 -0.09765625 10.62890625 C-0.07578711 7.08579671 -0.04135977 3.54294188 0 0 Z " transform="translate(466,151)" style="fill: #ED077D;"/><path d="M0 0 C2.13364524 1.64459471 2.93558689 3.00624152 3.92578125 5.484375 C2.93578125 6.474375 1.94578125 7.464375 0.92578125 8.484375 C-1.8057703 7.43995823 -4.25178967 6.37700653 -6.76171875 4.859375 C-11.80568301 2.76565399 -16.8963897 2.4170586 -22.1328125 4.17578125 C-27.01937892 6.6873713 -29.81057411 10.32526341 -31.82421875 15.359375 C-32.67284172 22.57267027 -32.21720638 27.42525559 -28.07421875 33.484375 C-24.73020834 37.22648189 -22.08296167 38.77278669 -17.19921875 39.484375 C-12.0910345 39.76174247 -8.65040464 38.73232596 -4.07421875 36.484375 C-2.38739241 34.94952416 -2.38739241 34.94952416 -1.07421875 33.484375 C0.24578125 34.144375 1.56578125 34.804375 2.92578125 35.484375 C2.92578125 36.804375 2.92578125 38.124375 2.92578125 39.484375 C1.1328125 41.15234375 1.1328125 41.15234375 -1.26171875 42.671875 C-2.03902344 43.18105469 -2.81632813 43.69023437 -3.6171875 44.21484375 C-9.89208095 47.4570383 -17.05591704 47.2764447 -23.69921875 45.296875 C-30.94600796 42.58244193 -34.9391205 38.45483012 -38.15625 31.5 C-40.30643482 24.43641411 -40.5566065 15.85857816 -37.57421875 8.984375 C-29.24421572 -4.54449517 -13.59937527 -7.21145268 0 0 Z " transform="translate(555.07421875,153.515625)" style="fill: #ED087E;"/><path d="M0 0 C12.54 0 25.08 0 38 0 C38 1.98 38 3.96 38 6 C32.72 6 27.44 6 22 6 C22 19.86 22 33.72 22 48 C20.02 48 18.04 48 16 48 C16 34.14 16 20.28 16 6 C10.72 6 5.44 6 0 6 C0 4.02 0 2.04 0 0 Z " transform="translate(564,151)" style="fill: #ED0C80;"/><path d="M0 0 C12.54 0 25.08 0 38 0 C38 1.98 38 3.96 38 6 C32.72 6 27.44 6 22 6 C22 19.86 22 33.72 22 48 C20.02 48 18.04 48 16 48 C16 34.14 16 20.28 16 6 C10.72 6 5.44 6 0 6 C0 4.02 0 2.04 0 0 Z " transform="translate(374,151)" style="fill: #ED0C7F;"/><path d="M0 0 C1.98 0 3.96 0 6 0 C6 15.84 6 31.68 6 48 C4.02 48 2.04 48 0 48 C0 32.16 0 16.32 0 0 Z " transform="translate(610,151)" style="fill: #EC047B;"/></svg>