<svg width="84" height="64" viewBox="0 0 84 64" fill="none" xmlns="http://www.w3.org/2000/svg">
    <path fill-rule="evenodd" clip-rule="evenodd" d="M4.65657 55.7138L4.64602 55.6972C2.83028 52.8368 1.55162 49.8799 0.819733 46.828L0.812399 46.7974L0.80712 46.7664C0.273697 43.6359 0 41.0442 0 39.008C0 30.8153 2.2588 23.3568 6.77729 16.6576C11.3157 9.92878 18.3632 4.5118 27.8367 0.370984L28.6855 3.45238e-07L32.0117 6.16454L30.9899 6.56162C25.6807 8.62475 21.0496 11.8782 17.0924 16.34C13.3252 20.7856 11.5055 25.2309 11.5055 29.6916C11.5055 31.0182 11.632 32.2075 11.8767 33.2657C14.6013 31.5458 17.6839 30.6875 21.0983 30.6875C25.9086 30.6875 30.1075 32.1517 33.646 35.0855C37.2516 38.0749 39.0217 42.2026 39.0217 47.3438C39.0217 52.1811 37.2365 56.2055 33.6671 59.3389C30.1305 62.4436 25.9246 64 21.0983 64C17.0958 64 13.7264 63.2419 11.0571 61.6518C8.46938 60.1103 6.33637 58.1351 4.6678 55.73L4.65657 55.7138ZM12.1495 34.2473C11.8651 34.4347 11.5849 34.6323 11.3089 34.8401C11.1949 34.5231 11.0932 34.1948 11.0037 33.855C10.678 32.6181 10.5152 31.2303 10.5152 29.6916C10.5152 24.9516 12.4554 20.2934 16.3359 15.7169C20.1639 11.3985 24.6201 8.17164 29.7045 6.0362C30.0085 5.90853 30.3147 5.78476 30.6231 5.6649L28.2419 1.25183C18.8935 5.338 12.0145 10.65 7.60482 17.1879C3.19518 23.7257 0.990362 30.9991 0.990362 39.008C0.990362 40.9693 1.25494 43.5028 1.7841 46.6083C2.48964 49.5503 3.72434 52.4106 5.48819 55.1892C7.07566 57.4775 9.1041 59.3571 11.5735 60.8281C14.0429 62.2991 17.2178 63.0346 21.0983 63.0346C25.6843 63.0346 29.653 61.5636 33.0043 58.6216C36.3557 55.6795 38.0313 51.9203 38.0313 47.3438C38.0313 42.4404 36.3557 38.5994 33.0043 35.8208C29.653 33.0422 25.6843 31.6529 21.0983 31.6529C17.7564 31.6529 14.7735 32.5177 12.1495 34.2473ZM49.6349 55.7138L49.6243 55.6972C47.8086 52.8368 46.5299 49.8799 45.7981 46.828L45.7907 46.7974L45.7854 46.7664C45.252 43.6359 44.9783 41.0442 44.9783 39.008C44.9783 30.8153 47.2371 23.3568 51.7556 16.6576C56.294 9.92878 63.3416 4.5118 72.815 0.370984L73.6638 0L76.99 6.16454L75.9682 6.56162C70.659 8.62474 66.028 11.8782 62.0707 16.34C58.3036 20.7856 56.4839 25.2309 56.4839 29.6916C56.4839 31.0182 56.6103 32.2075 56.855 33.2657C59.5796 31.5458 62.6623 30.6875 66.0766 30.6875C70.8869 30.6875 75.0858 32.1517 78.6243 35.0855C82.23 38.0749 84 42.2026 84 47.3438C84 52.1811 82.2148 56.2055 78.6454 59.3389C75.1089 62.4436 70.9029 64 66.0766 64C62.0742 64 58.7047 63.2419 56.0354 61.6518C53.4477 60.1103 51.3147 58.1351 49.6461 55.73L49.6349 55.7138ZM57.1278 34.2472C56.8434 34.4347 56.5632 34.6323 56.2872 34.8401C56.1732 34.5231 56.0715 34.1948 55.982 33.855C55.6563 32.6181 55.4935 31.2303 55.4935 29.6916C55.4935 24.9516 57.4337 20.2934 61.3142 15.7169C65.1422 11.3985 69.5984 8.17164 74.6828 6.0362C74.9868 5.90853 75.293 5.78476 75.6014 5.6649L73.2202 1.25183C63.8718 5.338 56.9928 10.65 52.5831 17.1879C48.1735 23.7257 45.9687 30.9991 45.9687 39.008C45.9687 40.9693 46.2333 43.5028 46.7624 46.6083C47.468 49.5503 48.7027 52.4106 50.4665 55.1892C52.054 57.4775 54.0824 59.3571 56.5518 60.8281C59.0212 62.2991 62.1961 63.0346 66.0766 63.0346C70.6627 63.0346 74.6313 61.5636 77.9827 58.6216C81.334 55.6795 83.0096 51.9203 83.0096 47.3438C83.0096 42.4404 81.334 38.5994 77.9827 35.8208C74.6313 33.0422 70.6627 31.6529 66.0766 31.6529C62.7347 31.6529 59.7518 32.5177 57.1278 34.2472Z" fill="white" fill-opacity="0.2"/>
</svg>
